# Blender 3.4.1
# www.blender.org
mtllib basaltic-columns.mtl
o basaltic-columns-1
v 14.491220 -1.867418 4.926969
v 14.490490 0.136469 4.926993
v 15.044604 -1.867486 4.906634
v 15.339009 -1.867486 5.375867
v 15.318794 0.134074 5.378323
v 15.079844 -1.867486 5.865446
v 14.544708 -1.860662 5.884722
v 14.497624 0.060342 5.921723
v 14.283764 -1.848276 5.413548
v 14.265025 0.130153 5.424242
v 15.009570 -1.206484 5.874770
v 14.849403 -1.114501 5.887499
v 14.813150 -0.998474 5.890915
v 14.523085 -0.915847 5.902884
v 14.515841 -0.683665 5.907393
v 14.439444 -0.734072 5.743337
v 14.687392 -0.823521 4.919760
v 14.491117 -0.750433 4.926975
v 14.490967 -0.424667 4.926980
v 14.379447 -0.696432 5.184590
v 14.402374 -0.707377 5.133870
v 14.411060 -0.622533 5.113077
v 14.910334 0.136716 4.911527
v 15.105900 0.136113 5.017523
v 15.040919 -0.099484 4.906728
v 15.106864 0.117648 5.763239
v 14.918173 0.100657 5.889202
v 15.048499 -0.123951 5.877823
vn 0.8755 0.0175 0.4828
vn -0.0368 -0.0000 -0.9993
vn 0.0758 -0.0060 0.9971
vn 0.8595 0.0093 -0.5110
vn -0.8985 -0.0290 0.4380
vn -0.9108 -0.0064 -0.4128
vn -0.0186 -0.9998 -0.0098
vn 0.4506 0.6970 0.5579
vn -0.6265 -0.6275 0.4623
vn 0.3471 0.9367 -0.0461
vn -0.6900 -0.3281 -0.6452
vn 0.4593 0.2711 -0.8459
vn 0.5197 0.2604 0.8137
vn 0.0064 0.9998 0.0209
vn 0.8837 0.0126 0.4678
vn 0.8777 0.0083 0.4792
vn -0.0367 -0.0000 -0.9993
vn 0.0359 -0.0184 0.9992
vn 0.0791 -0.0057 0.9969
vn 0.0674 -0.0114 0.9977
vn 0.0761 -0.0055 0.9971
vn 0.0787 -0.0173 0.9967
vn 0.0554 -0.0000 0.9985
vn 0.0358 -0.0183 0.9992
vn 0.8471 0.0018 -0.5315
vn 0.8612 0.0014 -0.5082
vn -0.9025 -0.0304 0.4296
vn -0.9070 -0.0279 0.4202
vn -0.8895 -0.0109 0.4567
vn -0.8748 -0.0210 0.4840
vn -0.9190 -0.0001 -0.3942
vn -0.9199 -0.0005 -0.3922
vn -0.9107 -0.0060 -0.4130
vn -0.9186 -0.0008 -0.3952
vn -0.9118 -0.0072 -0.4105
vn -0.9117 -0.0059 -0.4108
vn -0.0134 -0.9997 -0.0188
vn 0.0013 -0.9992 0.0399
vn -0.0178 -0.9998 0.0112
vn 0.4432 0.6931 0.5685
vn -0.6250 -0.6154 0.4802
vn 0.3480 0.9364 -0.0448
vn -0.6901 -0.3287 -0.6447
vn -0.0001 0.9999 0.0126
vn -0.0805 0.9812 0.1753
vn -0.0245 0.9949 0.0975
vn -0.0324 0.9992 0.0248
vn -0.0103 0.9996 0.0248
vt 0.967062 0.294866
vt 0.989445 0.294866
vt 0.989445 0.294866
vt 0.967062 0.294866
vt 0.967062 0.294866
vt 0.989445 0.294866
vt 0.989445 0.317249
vt 0.989445 0.317249
vt 0.989445 0.294866
vt 0.967062 0.294866
vt 0.967062 0.294866
vt 0.989445 0.317249
vt 0.989445 0.294866
vt 0.989445 0.294866
vt 0.967062 0.294866
vt 0.989445 0.317249
vt 0.989445 0.317249
vt 0.989445 0.294866
vt 0.967062 0.294866
vt 0.967062 0.294866
vt 0.989445 0.294866
vt 0.989445 0.317249
vt 0.967062 0.294866
vt 0.989445 0.294866
vt 0.989445 0.317249
vt 0.967062 0.294866
vt 0.989445 0.294866
vt 0.989445 0.317249
vt 0.967062 0.294866
vt 0.989445 0.294866
vt 0.989445 0.294866
vt 0.967062 0.294866
vt 0.989445 0.317249
vt 0.989445 0.294866
vt 0.967062 0.294866
vt 0.989445 0.317249
vt 0.989445 0.294866
vt 0.989445 0.317249
vt 0.967062 0.294866
vt 0.989445 0.294866
vt 0.989445 0.294866
vt 0.989445 0.317249
vt 0.989445 0.294866
vt 0.989445 0.317249
vt 0.967062 0.294866
vt 0.989445 0.317249
vt 0.989445 0.294866
vt 0.967062 0.294866
vt 0.989445 0.317249
vt 0.967062 0.294866
vt 0.989445 0.294866
vt 0.989445 0.317249
vt 0.967062 0.294866
vt 0.989445 0.294866
vt 0.989445 0.317249
vt 0.989445 0.294866
vt 0.967062 0.294866
vt 0.989445 0.294866
vt 0.967062 0.294866
vt 0.989445 0.317249
vt 0.967062 0.294866
vt 0.989445 0.317249
vt 0.989445 0.294866
vt 0.989445 0.294866
vt 0.989445 0.317249
vt 0.967062 0.294866
vt 0.989445 0.294866
vt 0.989445 0.317249
vt 0.967062 0.294866
vt 0.989445 0.294866
vt 0.967062 0.294866
vt 0.989445 0.317249
vt 0.989445 0.294866
vt 0.967062 0.294866
vt 0.989445 0.317249
vt 0.967062 0.294866
vt 0.989445 0.294866
vt 0.989445 0.317249
s 0
usemtl Rocks
f 5/11/1 26/70/1 28/78/1
f 17/45/2 19/51/2 23/62/2
f 11/29/3 12/31/3 6/16/3
f 25/69/4 5/13/4 4/8/4
f 7/19/5 14/37/5 16/42/5
f 9/23/6 10/27/6 20/52/6
f 4/10/7 6/14/7 9/22/7
f 23/61/12 24/64/12 25/68/12
f 26/71/13 27/73/13 28/78/13
f 10/26/14 26/70/14 23/62/14
f 6/15/15 4/9/15 28/78/15
f 4/10/16 5/13/16 28/78/16
f 19/50/2 2/3/2 23/62/2
f 23/61/2 25/67/2 17/44/2
f 25/69/2 3/6/2 17/44/2
f 3/5/17 1/2/17 17/44/17
f 1/1/17 18/47/17 17/44/17
f 12/32/18 14/37/18 7/17/18
f 6/15/19 28/77/19 11/28/19
f 28/76/20 27/73/20 15/38/20
f 11/29/21 28/77/21 13/33/21
f 27/74/22 8/21/22 15/38/22
f 15/39/23 13/34/23 28/78/23
f 12/32/24 7/18/24 6/16/24
f 4/10/25 3/6/25 25/68/25
f 25/69/26 24/64/26 5/12/26
f 15/39/27 8/21/27 16/42/27
f 8/20/28 10/27/28 16/42/28
f 10/26/29 9/24/29 16/42/29
f 9/23/30 7/18/30 16/42/30
f 18/48/31 1/2/31 21/55/31
f 1/1/32 9/24/32 21/55/32
f 10/26/33 2/3/33 22/60/33
f 2/4/34 19/51/34 22/60/34
f 22/59/35 20/54/35 10/25/35
f 20/53/36 21/56/36 9/22/36
f 7/19/37 9/24/37 6/16/37
f 9/23/38 1/2/38 3/7/38
f 4/10/39 9/24/39 3/7/39
f 2/4/44 10/27/44 23/62/44
f 10/26/45 8/21/45 27/75/45
f 26/71/46 10/27/46 27/75/46
f 26/71/47 5/13/47 24/65/47
f 24/66/48 23/63/48 26/72/48
usemtl 
f 12/32/8 16/41/8 14/36/8
f 13/35/9 16/41/9 11/28/9
f 21/57/10 17/43/10 18/46/10
f 17/45/11 22/58/11 19/49/11
f 12/32/40 11/30/40 16/42/40
f 13/35/41 15/40/41 16/42/41
f 21/57/42 20/54/42 17/44/42
f 17/45/43 20/54/43 22/60/43
o basaltic-columns-2
v 15.329330 -1.763331 4.434755
v 15.328404 0.234848 4.457151
v 15.886630 -1.767044 4.369620
v 16.178247 -1.764269 4.872334
v 16.166702 0.238343 4.899515
v 15.916956 -1.762161 5.387317
v 15.899087 0.241551 5.356405
v 15.363395 -1.762161 5.407679
v 15.068990 -1.762161 4.938446
v 15.068990 0.241753 4.938446
v 15.619111 -1.128442 4.424952
v 15.881925 -1.134221 4.394083
v 15.878963 -0.735956 4.409478
v 15.968683 -1.179523 4.524864
v 15.988865 -1.035018 4.563048
v 16.043707 -1.223375 4.653149
v 15.982432 -0.249439 5.212285
v 15.967637 -0.250995 5.237537
v 15.963904 -0.224175 5.244010
v 15.903570 -0.261223 5.364161
v 15.902372 -0.126923 5.362090
v 15.666334 -0.208091 5.382403
v 15.789396 0.236933 4.448624
v 15.916700 0.237463 4.516078
v 15.872831 0.088739 4.441358
v 15.441087 0.241735 5.393275
v 15.315190 0.241765 5.330164
v 15.359334 0.092830 5.400461
vn 0.0802 0.0161 0.9966
vn -0.1158 0.0375 -0.9926
vn 0.8621 0.0213 0.5064
vn -0.8467 -0.0000 0.5321
vn 0.8649 0.0118 -0.5018
vn -0.8883 0.0047 -0.4592
vn -0.0017 -1.0000 0.0032
vn 0.0555 0.9543 0.2937
vn 0.3992 -0.2985 -0.8669
vn 0.2285 0.9543 0.1927
vn 0.2869 -0.6607 0.6937
vn 0.4467 0.2930 -0.8454
vn -0.4304 0.2778 0.8588
vn 0.0024 1.0000 -0.0042
vn 0.0688 0.0104 0.9976
vn 0.0626 0.0040 0.9980
vn 0.0368 0.0091 0.9993
vn -0.0582 0.0112 -0.9982
vn -0.0187 0.0385 -0.9991
vn -0.0718 0.0082 -0.9974
vn 0.8917 0.0149 0.4524
vn 0.8917 0.0137 0.4524
vn 0.8629 -0.0019 0.5054
vn -0.8471 0.0002 0.5315
vn -0.8467 0.0002 0.5321
vn 0.8373 0.0273 -0.5460
vn -0.8803 -0.0000 -0.4745
vn -0.0000 -1.0000 -0.0000
vn -0.0018 -1.0000 0.0014
vn -0.0056 -0.9999 0.0088
vn 0.0038 1.0000 -0.0048
vn -0.0012 1.0000 -0.0055
vn -0.0000 1.0000 -0.0049
vn -0.0048 0.9998 -0.0169
vn 0.0047 1.0000 -0.0030
vt 0.991506 0.374677
vt 0.991506 0.352294
vt 0.969124 0.352294
vt 0.969124 0.352294
vt 0.991506 0.374677
vt 0.991506 0.352294
vt 0.991506 0.374677
vt 0.969124 0.352294
vt 0.991506 0.352294
vt 0.991506 0.352294
vt 0.969124 0.352294
vt 0.991506 0.374677
vt 0.991506 0.352294
vt 0.991506 0.374677
vt 0.969124 0.352294
vt 0.991506 0.352294
vt 0.991506 0.374677
vt 0.969124 0.352294
vt 0.991506 0.352294
vt 0.991506 0.374677
vt 0.969124 0.352294
vt 0.969124 0.352294
vt 0.991506 0.352294
vt 0.991506 0.374677
vt 0.969124 0.352294
vt 0.991506 0.352294
vt 0.991506 0.374677
vt 0.969124 0.352294
vt 0.991506 0.352294
vt 0.991506 0.374677
vt 0.969124 0.352294
vt 0.991506 0.352294
vt 0.991506 0.374677
vt 0.969124 0.352294
vt 0.991506 0.352294
vt 0.991506 0.374677
vt 0.969124 0.352294
vt 0.969124 0.352294
vt 0.991506 0.352294
vt 0.991506 0.374677
vt 0.991506 0.374677
vt 0.969124 0.352294
vt 0.991506 0.374677
vt 0.969124 0.352294
vt 0.991506 0.352294
vt 0.969124 0.352294
vt 0.991506 0.374677
vt 0.991506 0.374677
vt 0.969124 0.352294
vt 0.991506 0.352294
vt 0.991506 0.352294
vt 0.991506 0.352294
vt 0.969124 0.352294
vt 0.991506 0.374677
vt 0.991506 0.352294
vt 0.969124 0.352294
vt 0.991506 0.374677
vt 0.991506 0.374677
vt 0.969124 0.352294
vt 0.991506 0.352294
vt 0.991506 0.374677
vt 0.991506 0.352294
vt 0.991506 0.352294
vt 0.969124 0.352294
vt 0.991506 0.374677
vt 0.969124 0.352294
vt 0.991506 0.352294
vt 0.991506 0.352294
vt 0.991506 0.374677
vt 0.969124 0.352294
s 0
usemtl Rocks
f 34/96/49 48/128/49 50/132/49
f 39/109/50 31/87/50 29/79/50
f 45/122/51 46/123/51 34/95/51
f 56/148/52 38/104/52 37/102/52
f 33/93/53 32/88/53 44/119/53
f 37/103/54 30/84/54 29/79/54
f 32/89/55 34/94/55 37/102/55
f 51/134/60 52/138/60 53/139/60
f 54/142/61 55/145/61 56/147/61
f 55/144/62 54/141/62 51/135/62
f 50/131/49 49/129/49 35/98/49
f 35/99/49 54/141/49 50/132/49
f 54/142/63 56/146/63 50/132/63
f 56/148/64 36/101/64 50/132/64
f 36/100/65 34/94/65 50/132/65
f 39/109/50 40/110/50 31/85/50
f 29/81/66 30/84/66 39/108/66
f 30/82/67 51/133/67 41/111/67
f 39/109/68 30/84/68 41/111/68
f 51/134/67 53/140/67 41/111/67
f 46/124/69 48/128/69 34/95/69
f 34/96/70 32/88/70 45/121/70
f 32/89/71 33/91/71 45/121/71
f 33/93/71 35/97/71 45/121/71
f 35/99/69 49/129/69 47/126/69
f 45/122/71 35/97/71 47/126/71
f 37/103/72 36/101/72 56/147/72
f 56/148/73 55/145/73 38/105/73
f 43/116/74 41/113/74 33/92/74
f 41/112/74 53/140/74 52/136/74
f 33/93/74 41/113/74 52/136/74
f 32/89/53 31/87/53 44/119/53
f 31/86/74 40/110/74 42/114/74
f 44/120/53 31/87/53 42/114/53
f 44/120/53 43/117/53 33/92/53
f 37/103/75 38/104/75 30/83/75
f 34/96/76 36/101/76 37/102/76
f 37/103/77 29/80/77 32/90/77
f 29/81/78 31/87/78 32/90/78
f 33/93/79 52/138/79 35/98/79
f 52/137/80 51/133/80 54/143/80
f 35/99/81 52/138/81 54/143/81
f 51/134/82 30/84/82 38/105/82
f 38/106/83 55/145/83 51/135/83
usemtl 
f 42/115/56 39/107/56 44/119/56
f 39/109/57 43/117/57 44/119/57
f 50/131/58 46/123/58 45/121/58
f 47/127/59 50/130/59 45/121/59
f 42/115/56 40/110/56 39/108/56
f 39/109/57 41/113/57 43/118/57
f 50/131/58 48/128/58 46/125/58
f 47/127/59 49/129/59 50/132/59
o basaltic-columns-3
v 14.467111 -1.803828 3.941654
v 14.467111 1.526340 3.941654
v 15.020681 -1.803828 3.921309
v 15.020681 1.526340 3.921309
v 15.315085 -1.803828 4.390542
v 15.315085 1.526340 4.390542
v 15.055921 -1.803828 4.880121
v 14.502350 -1.803828 4.900466
v 14.502350 1.526340 4.900466
v 14.207946 -1.803828 4.431233
v 15.193141 1.526340 4.620903
v 15.055921 0.697461 4.880121
v 14.813617 1.526340 4.889026
v 14.633212 0.772784 3.935549
v 15.020681 0.717308 3.921309
v 15.020681 0.854848 3.921309
v 15.117695 0.864075 4.075934
v 14.207946 1.434184 4.431233
v 14.224239 1.526340 4.457204
v 14.222289 1.526340 4.404137
vn -0.0367 -0.0000 -0.9993
vn 0.8471 -0.0000 -0.5315
vn 0.8838 -0.0000 0.4679
vn 0.0367 -0.0000 0.9993
vn -0.8471 -0.0000 0.5315
vn -0.0000 1.0000 -0.0000
vn -0.0000 -1.0000 -0.0000
vn 0.5698 0.1579 0.8065
vn 0.0741 0.6997 -0.7106
vn 0.2042 -0.9764 -0.0699
vn -0.9858 0.1641 0.0362
vn -0.8838 -0.0000 -0.4679
vt 0.996012 0.390696
vt 0.996012 0.362451
vt 0.967767 0.362451
vt 0.967767 0.362451
vt 0.996012 0.362451
vt 0.996012 0.390696
vt 0.996012 0.362451
vt 0.996012 0.390696
vt 0.967767 0.362451
vt 0.996012 0.362451
vt 0.996012 0.390696
vt 0.967767 0.362451
vt 0.967767 0.362451
vt 0.996012 0.390696
vt 0.996012 0.362451
vt 0.967767 0.362451
vt 0.996012 0.390696
vt 0.996012 0.362451
vt 0.996012 0.362451
vt 0.967767 0.362451
vt 0.996012 0.390696
vt 0.967767 0.362451
vt 0.996012 0.362451
vt 0.996012 0.390696
vt 0.996012 0.362451
vt 0.967767 0.362451
vt 0.996012 0.390696
vt 0.967767 0.362451
vt 0.996012 0.362451
vt 0.996012 0.362451
vt 0.967767 0.362451
vt 0.996012 0.390696
vt 0.996012 0.362451
vt 0.967767 0.362451
vt 0.996012 0.390696
vt 0.996012 0.390696
vt 0.967767 0.362451
vt 0.996012 0.362451
vt 0.996012 0.362451
vt 0.996012 0.390696
vt 0.967767 0.362451
vt 0.967767 0.362451
vt 0.996012 0.362451
vt 0.996012 0.390696
vt 0.996012 0.390696
vt 0.996012 0.362451
vt 0.996012 0.362451
vt 0.996012 0.390696
vt 0.967767 0.362451
vt 0.996012 0.390696
vt 0.967767 0.362451
vt 0.996012 0.362451
vt 0.996012 0.390696
vt 0.996012 0.390696
vt 0.967767 0.362451
vt 0.996012 0.362451
s 0
usemtl Rocks
f 57/151/84 58/153/84 70/188/84
f 73/197/85 60/158/85 62/165/85
f 62/164/86 68/181/86 61/162/86
f 64/170/87 63/167/87 68/183/87
f 65/174/88 75/200/88 74/198/88
f 76/203/89 75/200/89 69/184/89
f 66/176/90 59/155/90 63/169/90
f 74/199/94 75/200/94 76/202/94
f 74/199/95 58/153/95 57/149/95
f 71/190/84 59/155/84 57/149/84
f 58/152/84 60/158/84 70/188/84
f 60/160/84 72/194/84 70/188/84
f 70/189/84 71/191/84 57/149/84
f 73/197/85 72/194/85 60/159/85
f 62/164/85 61/163/85 73/196/85
f 61/161/85 59/155/85 71/192/85
f 73/197/85 61/163/85 71/192/85
f 67/179/86 68/181/86 62/165/86
f 68/182/86 63/167/86 61/162/86
f 68/182/87 69/186/87 65/172/87
f 65/174/87 64/171/87 68/183/87
f 66/176/88 64/171/88 74/198/88
f 64/170/88 65/173/88 74/198/88
f 65/174/89 69/186/89 75/201/89
f 69/185/89 67/178/89 58/154/89
f 76/203/89 69/186/89 58/154/89
f 67/179/89 62/166/89 60/159/89
f 60/160/89 58/153/89 67/180/89
f 63/168/90 64/171/90 66/175/90
f 66/176/90 57/150/90 59/156/90
f 59/157/90 61/163/90 63/169/90
f 57/151/95 66/177/95 74/198/95
f 74/199/95 76/204/95 58/154/95
usemtl 
f 69/185/91 68/181/91 67/180/91
f 70/189/92 73/195/92 71/192/92
f 73/197/93 70/187/93 72/193/93
o basaltic-columns-4
v 15.300369 -2.132806 3.424735
v 15.853940 -2.132806 3.404390
v 15.853940 2.462088 3.404390
v 16.148346 -2.132806 3.873622
v 15.889180 -2.132806 4.363202
v 15.889180 2.462088 4.363202
v 15.335609 -2.132806 4.383547
v 15.041204 -2.132806 3.914314
v 15.041204 2.462088 3.914314
v 15.300369 1.189576 3.424735
v 15.300369 1.287669 3.424735
v 15.853940 1.166587 3.404390
v 15.853940 1.382056 3.404390
v 15.983666 1.389497 3.611152
v 15.258445 1.275132 3.503935
v 16.052382 1.625961 4.054904
v 15.889180 0.640145 4.363202
v 15.889180 1.665419 4.363202
v 15.570141 1.731525 4.374927
v 15.365545 2.462088 3.422340
v 15.300369 2.191594 3.424735
v 15.269856 2.462088 3.482377
v 16.113684 2.462088 3.818376
v 16.117832 2.462088 3.931264
v 16.148346 2.191594 3.873622
v 15.515303 2.462088 4.376943
v 15.240044 2.462088 4.231231
v 15.335609 2.282274 4.383547
vn -0.8838 -0.0000 -0.4679
vn -0.0367 -0.0000 -0.9993
vn 0.8838 -0.0000 0.4679
vn 0.0367 -0.0000 0.9993
vn 0.8471 -0.0000 -0.5315
vn -0.0000 -1.0000 -0.0000
vn 0.0013 0.6797 -0.7335
vn 0.1652 -0.9839 -0.0683
vn 0.5698 0.1579 0.8065
vn -0.2022 -0.9792 0.0183
vn -0.5277 0.1197 -0.8410
vn 0.9921 0.1197 -0.0365
vn -0.8471 -0.0000 0.5315
vn -0.4185 0.4472 0.7905
vn -0.0000 1.0000 -0.0000
vt 0.964675 0.289595
vt 0.992920 0.289595
vt 0.992920 0.289595
vt 0.992920 0.317840
vt 0.964675 0.289595
vt 0.992920 0.317840
vt 0.964675 0.289595
vt 0.992920 0.289595
vt 0.992920 0.317840
vt 0.964675 0.289595
vt 0.992920 0.289595
vt 0.992920 0.289595
vt 0.964675 0.289595
vt 0.992920 0.317840
vt 0.992920 0.317840
vt 0.964675 0.289595
vt 0.992920 0.289595
vt 0.964675 0.289595
vt 0.992920 0.289595
vt 0.992920 0.317840
vt 0.964675 0.289595
vt 0.964675 0.289595
vt 0.992920 0.317840
vt 0.992920 0.289595
vt 0.992920 0.317840
vt 0.964675 0.289595
vt 0.992920 0.289595
vt 0.992920 0.317840
vt 0.992920 0.289595
vt 0.992920 0.289595
vt 0.992920 0.317840
vt 0.992920 0.317840
vt 0.992920 0.289595
vt 0.964675 0.289595
vt 0.964675 0.289595
vt 0.992920 0.317840
vt 0.992920 0.289595
vt 0.992920 0.289595
vt 0.964675 0.289595
vt 0.992920 0.317840
vt 0.992920 0.289595
vt 0.964675 0.289595
vt 0.992920 0.317840
vt 0.992920 0.289595
vt 0.964675 0.289595
vt 0.992920 0.317840
vt 0.964675 0.289595
vt 0.992920 0.289595
vt 0.992920 0.289595
vt 0.964675 0.289595
vt 0.992920 0.317840
vt 0.964675 0.289595
vt 0.992920 0.317840
vt 0.992920 0.289595
vt 0.992920 0.289595
vt 0.992920 0.317840
vt 0.964675 0.289595
vt 0.992920 0.289595
vt 0.992920 0.317840
vt 0.964675 0.289595
vt 0.992920 0.317840
vt 0.992920 0.289595
vt 0.964675 0.289595
vt 0.992920 0.289595
vt 0.992920 0.317840
vt 0.964675 0.289595
vt 0.992920 0.289595
vt 0.992920 0.317840
vt 0.964675 0.289595
vt 0.992920 0.289595
vt 0.964675 0.289595
vt 0.992920 0.317840
vt 0.992920 0.289595
vt 0.964675 0.289595
vt 0.992920 0.317840
vt 0.992920 0.289595
vt 0.992920 0.317840
vt 0.964675 0.289595
s 0
usemtl Rocks
f 91/243/96 85/228/96 97/260/96
f 77/205/97 88/234/97 78/208/97
f 94/251/98 92/245/98 101/272/98
f 97/261/97 79/212/97 89/236/97
f 95/254/99 83/223/99 93/250/99
f 90/239/100 80/215/100 88/235/100
f 84/225/101 78/207/101 81/218/101
f 96/256/106 97/259/106 98/263/106
f 99/267/107 100/268/107 101/272/107
f 104/282/108 85/228/108 84/224/108
f 102/275/109 103/277/109 104/281/109
f 103/278/110 102/274/110 99/265/110
f 91/243/96 86/231/96 84/224/96
f 86/230/96 77/206/96 84/224/96
f 84/225/96 85/228/96 91/244/96
f 85/226/96 98/262/96 97/260/96
f 97/261/96 87/233/96 91/244/96
f 77/205/97 86/231/97 88/235/97
f 92/246/98 93/248/98 80/213/98
f 93/249/98 81/216/98 80/213/98
f 80/214/98 101/271/98 92/247/98
f 101/273/98 100/268/98 82/219/98
f 82/220/98 94/252/98 101/272/98
f 89/238/97 87/233/97 97/260/97
f 97/261/97 96/258/97 79/210/97
f 95/254/99 94/252/99 82/219/99
f 82/220/99 102/274/99 95/255/99
f 102/275/99 104/280/99 95/255/99
f 104/282/99 83/223/99 95/255/99
f 83/222/99 81/216/99 93/250/99
f 90/239/100 89/237/100 101/272/100
f 89/238/100 79/212/100 101/272/100
f 79/211/100 99/266/100 101/272/100
f 101/273/100 80/215/100 90/240/100
f 80/214/100 78/207/100 88/235/100
f 81/217/101 83/223/101 84/224/101
f 84/225/101 77/206/101 78/208/101
f 78/209/101 80/215/101 81/218/101
f 84/225/108 83/223/108 104/281/108
f 104/282/108 103/277/108 85/227/108
f 102/275/110 82/221/110 100/269/110
f 100/270/110 99/266/110 102/276/110
f 99/267/110 79/212/110 96/257/110
f 103/278/110 96/258/110 98/263/110
f 99/267/110 96/258/110 103/279/110
f 98/264/110 85/228/110 103/279/110
usemtl 
f 91/243/102 88/234/102 86/229/102
f 89/238/103 91/242/103 87/232/103
f 93/249/104 92/245/104 95/255/104
f 94/251/105 95/253/105 92/247/105
f 91/243/102 90/241/102 88/235/102
f 89/238/103 90/241/103 91/244/103
o basaltic-columns-5
v 13.653889 -2.076634 4.483199
v 14.207459 -2.076634 4.462853
v 14.207459 0.567559 4.462853
v 14.501864 -2.076634 4.932086
v 14.501864 0.567559 4.932086
v 14.242700 -2.076634 5.421665
v 13.689129 -2.076634 5.442010
v 13.689129 0.567559 5.442010
v 13.394724 -2.076634 4.972778
v 13.394724 0.567559 4.972778
v 13.723463 0.046216 5.440749
v 13.689129 0.013185 5.442010
v 13.689129 0.049896 5.442010
v 13.394724 -0.203227 4.972778
v 13.394724 -0.005614 4.972778
v 13.513552 -0.058271 4.748304
v 14.395117 -0.717171 5.133739
v 14.287285 -1.451264 5.337440
v 14.242700 -1.414637 5.421665
v 14.242700 -0.684104 5.421665
v 14.149438 -1.468418 5.425092
v 13.868746 -0.606514 5.435409
v 14.333829 0.567559 5.249516
v 14.048049 0.567559 5.428819
v 14.242700 0.372778 5.421665
v 13.583714 0.567559 4.615764
v 13.803782 0.567559 4.477690
v 13.653889 0.417566 4.483199
vn -0.0000 1.0000 -0.0000
vn 0.8471 -0.0000 -0.5315
vn 0.8838 -0.0000 0.4679
vn 0.0367 -0.0000 0.9993
vn -0.8471 -0.0000 0.5315
vn -0.0367 -0.0000 -0.9993
vn -0.0000 -1.0000 -0.0000
vn -0.6879 0.7189 0.1001
vn -0.0984 -0.9792 0.1776
vn 0.5158 0.1579 0.8420
vn -0.4345 0.7189 -0.5426
vn -0.2030 -0.9792 0.0050
vn 0.4754 0.4472 0.7576
vn -0.4754 0.4472 -0.7576
vn -0.8838 -0.0000 -0.4679
vt 0.996785 0.421164
vt 0.968540 0.421164
vt 0.996785 0.421164
vt 0.996785 0.449409
vt 0.968540 0.421164
vt 0.996785 0.421164
vt 0.968540 0.421164
vt 0.996785 0.449409
vt 0.968540 0.421164
vt 0.996785 0.449409
vt 0.996785 0.421164
vt 0.968540 0.421164
vt 0.996785 0.421164
vt 0.996785 0.421164
vt 0.968540 0.421164
vt 0.996785 0.449409
vt 0.968540 0.421164
vt 0.996785 0.421164
vt 0.968540 0.421164
vt 0.996785 0.421164
vt 0.996785 0.449409
vt 0.968540 0.421164
vt 0.996785 0.421164
vt 0.996785 0.421164
vt 0.996785 0.449409
vt 0.968540 0.421164
vt 0.996785 0.449409
vt 0.968540 0.421164
vt 0.968540 0.421164
vt 0.996785 0.421164
vt 0.996785 0.449409
vt 0.968540 0.421164
vt 0.996785 0.421164
vt 0.996785 0.421164
vt 0.996785 0.449409
vt 0.996785 0.449409
vt 0.996785 0.421164
vt 0.968540 0.421164
vt 0.996785 0.449409
vt 0.996785 0.421164
vt 0.968540 0.421164
vt 0.996785 0.449409
vt 0.968540 0.421164
vt 0.996785 0.421164
vt 0.968540 0.421164
vt 0.996785 0.421164
vt 0.996785 0.449409
vt 0.996785 0.421164
vt 0.968540 0.421164
vt 0.996785 0.421164
vt 0.996785 0.449409
vt 0.968540 0.421164
vt 0.968540 0.421164
vt 0.996785 0.449409
vt 0.968540 0.421164
vt 0.996785 0.449409
vt 0.996785 0.421164
vt 0.996785 0.449409
vt 0.996785 0.421164
vt 0.968540 0.421164
vt 0.996785 0.449409
vt 0.996785 0.421164
vt 0.968540 0.421164
vt 0.996785 0.449409
vt 0.996785 0.421164
vt 0.968540 0.421164
vt 0.968540 0.421164
vt 0.996785 0.421164
vt 0.996785 0.449409
vt 0.996785 0.421164
vt 0.968540 0.421164
s 0
usemtl Rocks
f 130/348/111 114/306/111 128/340/111
f 107/289/112 108/293/112 106/286/112
f 122/325/113 110/296/113 108/292/113
f 111/299/114 125/332/114 126/336/114
f 117/314/115 114/306/115 119/318/115
f 111/299/115 118/316/115 113/303/115
f 132/353/116 107/288/116 106/286/116
f 113/304/117 106/285/117 110/298/117
f 127/337/123 128/341/123 129/343/123
f 130/348/124 131/350/124 132/351/124
f 120/320/125 105/283/125 118/317/125
f 112/301/111 128/341/111 114/307/111
f 128/342/111 127/339/111 130/346/111
f 127/337/111 109/295/111 107/290/111
f 107/289/111 131/350/111 127/338/111
f 131/349/111 130/347/111 127/338/111
f 107/289/112 109/295/112 108/292/112
f 122/325/113 123/328/113 110/298/113
f 108/291/113 109/295/113 121/324/113
f 109/294/113 127/339/113 129/343/113
f 121/323/113 109/295/113 129/343/113
f 129/345/113 124/330/113 121/324/113
f 121/323/113 122/326/113 108/292/113
f 126/335/114 124/330/114 115/309/114
f 124/331/114 129/344/114 115/309/114
f 129/345/114 128/341/114 115/309/114
f 128/342/114 112/302/114 115/309/114
f 112/301/114 117/315/114 115/309/114
f 115/310/114 116/312/114 126/336/114
f 116/311/114 111/300/114 126/336/114
f 111/299/114 110/296/114 125/333/114
f 110/297/114 123/328/114 125/333/114
f 117/314/115 112/302/115 114/307/115
f 111/299/115 116/312/115 118/317/115
f 106/287/116 105/283/116 132/351/116
f 132/353/116 131/350/116 107/290/116
f 110/297/117 111/300/117 113/303/117
f 113/304/117 105/283/117 106/286/117
f 106/287/117 108/293/117 110/298/117
f 120/320/125 119/319/125 114/307/125
f 114/308/125 130/347/125 120/321/125
f 130/348/125 132/352/125 120/321/125
f 132/353/125 105/283/125 120/321/125
f 105/284/125 113/305/125 118/317/125
usemtl 
f 120/320/118 116/312/118 115/309/118
f 115/310/119 119/319/119 120/321/119
f 125/334/120 121/322/120 126/336/120
f 123/327/121 122/326/121 125/333/121
f 126/335/122 121/322/122 124/329/122
f 120/320/118 118/316/118 116/313/118
f 115/310/119 117/315/119 119/318/119
f 125/334/120 122/326/120 121/324/120
o basaltic-columns-6
v 13.596807 -2.203758 3.496606
v 14.150378 -2.203758 3.476260
v 14.444782 -2.203758 3.945493
v 14.185617 -2.203758 4.435072
v 14.185617 1.849004 4.435072
v 13.632047 -2.203758 4.455418
v 13.337643 -2.203758 3.986185
v 13.337643 1.849004 3.986185
v 13.872195 0.101940 3.486485
v 13.596807 -0.032132 3.496606
v 13.596807 0.158649 3.496606
v 13.373485 0.197219 3.918475
v 13.549737 1.849004 3.585526
v 13.697350 1.849004 3.492911
v 13.596807 1.480963 3.496606
v 14.404920 1.849004 3.881958
v 14.409691 1.849004 4.011783
v 14.444782 1.574630 3.945493
v 14.150378 1.666247 3.476260
v 13.967744 1.849004 3.482973
v 14.247508 1.849004 3.631069
v 13.632047 1.666247 4.455418
v 13.814681 1.849004 4.448705
v 13.534917 1.849004 4.300609
vn -0.8471 -0.0000 0.5315
vn -0.0000 1.0000 -0.0000
vn 0.0367 -0.0000 0.9993
vn 0.8838 -0.0000 0.4679
vn -0.0000 -1.0000 -0.0000
vn -0.3716 0.7189 -0.5875
vn -0.2023 -0.9792 -0.0176
vn -0.5266 0.1354 -0.8393
vn -0.8838 -0.0000 -0.4678
vn 0.9901 0.1354 -0.0364
vn 0.8471 -0.0000 -0.5315
vn 0.4185 0.4472 -0.7905
vn -0.4185 0.4472 0.7905
vn -0.0367 -0.0000 -0.9993
vn -0.8838 -0.0000 -0.4679
vt 0.991889 0.315697
vt 0.963644 0.287452
vt 0.991889 0.287452
vt 0.991889 0.287452
vt 0.963644 0.287452
vt 0.991889 0.287452
vt 0.991889 0.315697
vt 0.963644 0.287452
vt 0.991889 0.315697
vt 0.963644 0.287452
vt 0.991889 0.287452
vt 0.963644 0.287452
vt 0.991889 0.287452
vt 0.991889 0.315697
vt 0.991889 0.287452
vt 0.963644 0.287452
vt 0.991889 0.315697
vt 0.963644 0.287452
vt 0.991889 0.287452
vt 0.991889 0.315697
vt 0.991889 0.287452
vt 0.991889 0.315697
vt 0.963644 0.287452
vt 0.991889 0.287452
vt 0.991889 0.315697
vt 0.963644 0.287452
vt 0.963644 0.287452
vt 0.991889 0.287452
vt 0.991889 0.315697
vt 0.963644 0.287452
vt 0.991889 0.287452
vt 0.963644 0.287452
vt 0.991889 0.315697
vt 0.991889 0.315697
vt 0.963644 0.287452
vt 0.991889 0.287452
vt 0.991889 0.315697
vt 0.991889 0.287452
vt 0.963644 0.287452
vt 0.991889 0.315697
vt 0.991889 0.287452
vt 0.963644 0.287452
vt 0.991889 0.287452
vt 0.991889 0.315697
vt 0.963644 0.287452
vt 0.991889 0.287452
vt 0.963644 0.287452
vt 0.991889 0.315697
vt 0.991889 0.287452
vt 0.963644 0.287452
vt 0.991889 0.315697
vt 0.991889 0.287452
vt 0.991889 0.315697
vt 0.963644 0.287452
vt 0.991889 0.315697
vt 0.963644 0.287452
vt 0.991889 0.287452
vt 0.963644 0.287452
vt 0.991889 0.315697
vt 0.991889 0.287452
vt 0.963644 0.287452
vt 0.991889 0.315697
vt 0.991889 0.287452
vt 0.963644 0.287452
vt 0.991889 0.315697
s 0
usemtl Rocks
f 154/411/126 140/374/126 139/373/126
f 155/414/127 149/399/127 153/408/127
f 137/365/128 155/413/128 154/412/128
f 150/400/129 137/366/129 136/362/129
f 133/355/130 135/359/130 138/370/130
f 145/388/133 146/391/133 147/393/133
f 139/371/134 140/374/134 144/386/134
f 148/395/135 149/399/135 150/401/135
f 153/409/136 148/396/136 150/401/136
f 151/403/137 152/405/137 153/408/137
f 154/411/138 155/413/138 156/418/138
f 134/358/139 142/381/139 141/378/139
f 139/371/126 138/368/126 154/412/126
f 154/411/126 156/416/126 140/375/126
f 140/376/127 156/416/127 145/387/127
f 156/417/127 155/413/127 152/406/127
f 145/388/127 152/405/127 146/390/127
f 155/414/127 137/366/127 149/397/127
f 149/398/127 148/396/127 153/408/127
f 153/409/127 152/405/127 155/415/127
f 152/407/127 145/389/127 156/418/127
f 138/369/128 136/364/128 154/412/128
f 136/363/128 137/366/128 154/412/128
f 136/363/129 135/359/129 150/401/129
f 150/400/129 149/399/129 137/367/129
f 138/369/130 139/372/130 133/354/130
f 133/355/130 134/357/130 135/360/130
f 135/361/130 136/364/130 138/370/130
f 142/380/140 133/356/140 139/373/140
f 140/376/140 145/389/140 147/393/140
f 147/392/140 143/384/140 144/386/140
f 144/385/140 142/381/140 139/373/140
f 140/376/140 147/394/140 144/386/140
f 135/361/136 134/357/136 150/401/136
f 134/358/136 151/402/136 150/401/136
f 151/403/136 153/410/136 150/401/136
f 141/379/139 143/384/139 147/393/139
f 147/392/139 146/391/139 152/406/139
f 152/407/139 151/402/139 147/393/139
f 151/403/139 134/357/139 141/378/139
f 134/358/139 133/356/139 142/382/139
f 141/379/139 147/394/139 151/404/139
usemtl 
f 141/379/131 142/381/131 144/386/131
f 143/383/132 141/377/132 144/386/132
