# Blender 3.4.1
# www.blender.org
mtllib road-square.mtl
o road-s-1
v -18.131794 -0.538073 -0.041666
v -18.104595 -0.414304 -0.055266
v -18.131794 -0.538073 -0.565117
v -18.100800 -0.415129 -0.526781
v -17.608341 -0.538073 -0.041666
v -17.611061 -0.416279 -0.015373
v -17.608341 -0.538073 -0.565117
v -17.636652 -0.472605 -0.476723
vn -0.9697 0.2444 -0.0000
vn -0.0000 0.8036 -0.5952
vn 0.9179 0.3969 -0.0000
vn -0.0000 0.1092 0.9940
vn -0.0000 -1.0000 -0.0000
vn 0.0138 0.9924 -0.1219
vn -0.9769 0.2138 -0.0082
vn 0.1356 0.2636 -0.9550
vn 0.9976 0.0351 -0.0596
vn -0.0796 -0.2120 0.9740
vn 0.1230 0.9924 -0.0007
vt 0.972703 0.293756
vt 0.972703 0.319710
vt 0.988056 0.293756
vt 0.988056 0.319710
vt 0.986011 0.317670
vt 0.972703 0.319710
vt 0.972703 0.293756
vt 0.988056 0.319710
vt 0.988056 0.293756
vt 0.986011 0.291715
vt 0.972703 0.319710
vt 0.972703 0.293756
vt 0.988056 0.319710
vt 0.970658 0.317670
vt 0.988056 0.319710
vt 0.988056 0.293756
vt 0.972703 0.319710
vt 0.972703 0.293756
vt 0.988056 0.293756
vt 0.988056 0.319710
vt 0.988056 0.293756
vt 0.970658 0.291715
s 0
usemtl Rocks
f 1/1/1 4/8/1 3/6/1
f 3/7/2 8/20/2 7/17/2
f 8/21/3 5/11/3 7/18/3
f 5/12/4 2/4/4 1/2/4
f 7/19/5 1/2/5 3/7/5
f 8/22/6 2/5/6 6/14/6
f 1/1/7 2/3/7 4/8/7
f 3/7/8 4/9/8 8/20/8
f 8/21/9 6/15/9 5/11/9
f 5/12/10 6/16/10 2/4/10
f 7/19/5 5/13/5 1/2/5
f 8/22/11 4/10/11 2/5/11
o road-s-2
v -17.823193 -0.538073 0.568003
v -17.806391 -0.414304 0.539199
v -17.823193 -0.538073 0.044552
v -17.802732 -0.414304 0.069395
v -17.299742 -0.538073 0.568003
v -17.299742 -0.414304 0.568003
v -17.299742 -0.538073 0.044552
v -17.324850 -0.414304 0.082648
vn -0.9909 0.1345 -0.0000
vn -0.0000 0.2942 -0.9558
vn 0.9800 0.1988 -0.0000
vn -0.0000 0.2267 0.9740
vn -0.0000 -1.0000 -0.0000
vn -0.0000 1.0000 -0.0000
vn -0.9863 0.1646 -0.0077
vn 0.0272 0.1924 -0.9809
vn 0.9987 -0.0000 -0.0517
vn -0.0568 -0.0000 0.9984
vt 0.974748 0.219602
vt 0.974748 0.245557
vt 0.990102 0.219602
vt 0.990102 0.245557
vt 0.974748 0.245557
vt 0.974748 0.219602
vt 0.990102 0.245557
vt 0.990102 0.219602
vt 0.974748 0.245557
vt 0.974748 0.219602
vt 0.990102 0.245557
vt 0.974748 0.245557
vt 0.990102 0.245557
vt 0.990102 0.219602
vt 0.974748 0.245557
vt 0.974748 0.219602
vt 0.990102 0.219602
vt 0.990102 0.245557
vt 0.990102 0.219602
vt 0.974748 0.219602
s 0
usemtl Rocks
f 10/25/12 11/27/12 9/23/12
f 11/28/13 16/40/13 15/37/13
f 16/41/14 13/31/14 15/38/14
f 13/32/15 10/26/15 9/24/15
f 15/39/16 9/24/16 11/28/16
f 16/42/17 10/26/17 14/34/17
f 10/25/18 12/29/18 11/27/18
f 11/28/19 12/30/19 16/40/19
f 16/41/20 14/35/20 13/31/20
f 13/32/21 14/36/21 10/26/21
f 15/39/16 13/33/16 9/24/16
f 16/42/17 12/30/17 10/26/17
o road-s-3
v -17.450430 -0.562852 -0.566785
v -17.445837 -0.437759 -0.542824
v -16.929163 -0.532079 -0.530247
v -16.981283 -0.507165 -0.173383
v -16.976315 -0.409908 -0.505949
v -17.487909 -0.547629 -0.044900
v -17.520309 -0.425703 -0.053124
v -16.966644 -0.516856 -0.008361
v -16.970022 -0.479502 -0.182155
v -16.969778 -0.482184 -0.169676
v -16.969627 -0.480569 -0.182064
v -17.012531 -0.444600 -0.024089
v -17.092426 -0.449898 -0.036205
v -17.318678 -0.419564 -0.212395
v -17.166857 -0.410255 -0.191351
v -17.146515 -0.434753 -0.039367
v -17.021536 -0.401702 -0.181947
v -16.970942 -0.490201 -0.117009
vn 0.0556 0.2154 -0.9749
vn 0.9351 0.3497 0.0569
vn -0.1564 0.1142 0.9811
vn -0.9960 0.0505 -0.0730
vn 0.0566 -0.9978 0.0332
vn -0.0566 0.9978 -0.0332
vn 0.0660 0.1854 -0.9804
vn 0.8296 0.5490 0.1019
vn -0.0390 0.0690 0.9969
vn -0.9548 -0.2631 -0.1387
vn -0.9099 0.4127 0.0427
vn 0.2750 0.9423 -0.1909
vn -0.1211 -0.2155 0.9690
vn 0.9352 0.3496 0.0570
vn -0.0823 0.2470 0.9655
vn 0.0217 0.9976 0.0660
vn -0.0353 0.0579 0.9977
vn 0.0068 0.8989 -0.4381
vn 0.1109 0.9459 -0.3050
vn 0.2666 0.9470 -0.1793
vn -0.0286 0.3127 0.9494
vn 0.2815 0.1840 0.9418
vn -0.0620 -0.0437 0.9971
vt 0.974748 0.219602
vt 0.974748 0.245557
vt 0.990102 0.219602
vt 0.990102 0.245557
vt 0.991738 0.247598
vt 0.974748 0.245557
vt 0.974748 0.219602
vt 0.971865 0.224864
vt 0.971887 0.229951
vt 0.990102 0.245557
vt 0.990102 0.219602
vt 0.991738 0.221643
vt 0.974748 0.219602
vt 0.990102 0.245557
vt 0.974748 0.245557
vt 0.990102 0.219602
vt 0.976385 0.247598
vt 0.990102 0.245557
vt 0.990102 0.219602
vt 0.974748 0.219602
vt 0.974748 0.245557
vt 0.980111 0.236492
vt 0.971942 0.236729
vt 0.979726 0.237143
vt 0.972234 0.221039
vt 0.971865 0.220183
vt 0.979976 0.236507
vt 0.971887 0.236567
vt 0.984079 0.219602
vt 0.984079 0.245557
vt 0.977202 0.235196
vt 0.987834 0.223435
vt 0.977178 0.243119
vt 0.981597 0.238026
vt 0.971865 0.252994
vt 0.993132 0.229951
vt 0.981128 0.229661
vt 0.985295 0.237172
vt 0.977286 0.247785
vt 0.976385 0.228153
vt 0.990102 0.226112
vt 0.990102 0.237430
vt 0.981192 0.221643
vt 0.977414 0.245772
vt 0.978525 0.239930
vt 0.973791 0.224864
vt 0.973791 0.226790
s 0
usemtl Rocks
f 17/43/22 21/52/22 19/48/22
f 19/49/23 25/64/23 27/69/23
f 29/74/24 24/62/24 28/71/24
f 22/55/25 18/46/25 17/44/25
f 24/61/26 17/44/26 19/49/26
f 18/47/27 23/59/27 30/76/27
f 17/43/28 18/45/28 21/52/28
f 21/53/29 33/84/29 25/64/29
f 24/63/29 34/87/29 28/72/29
f 32/83/30 22/57/30 29/74/30
f 22/55/31 23/58/31 18/46/31
f 24/61/26 22/56/26 17/44/26
f 21/54/27 31/79/27 33/85/27
f 26/66/35 24/63/35 19/49/35
f 19/49/35 21/53/35 25/64/35
f 27/69/35 26/66/35 19/49/35
f 29/74/36 22/57/36 24/62/36
f 23/59/37 32/82/37 30/76/37
f 30/76/27 31/79/27 18/47/27
f 24/63/29 26/66/29 34/87/29
f 32/83/38 23/60/38 22/57/38
f 21/54/27 18/47/27 31/79/27
usemtl 
f 20/50/32 26/67/32 27/68/32
f 30/77/33 32/81/33 29/75/33
f 31/80/34 30/78/34 25/65/34
f 20/50/32 34/88/32 26/67/32
f 29/75/39 28/73/39 34/89/39
f 34/89/40 20/50/40 29/75/40
f 20/50/41 30/77/41 29/75/41
f 30/78/42 20/51/42 25/65/42
f 20/51/43 27/70/43 25/65/43
f 25/65/44 33/86/44 31/80/44
o road-s-4
v -18.415672 -0.538073 0.059102
v -18.400801 -0.414304 0.085627
v -17.892807 -0.538073 0.034350
v -17.929367 -0.414304 0.067270
v -18.390921 -0.538073 0.581968
v -18.416672 -0.414304 0.580850
v -17.868055 -0.538073 0.557216
v -17.938786 -0.414304 0.543607
v -18.086220 -0.414304 0.073378
v -18.105696 -0.453584 0.065534
v -18.166641 -0.414304 0.076509
v -18.152922 -0.414304 0.193058
vn -0.0459 0.2441 -0.9687
vn 0.9547 0.2940 -0.0452
vn 0.0468 0.1356 0.9897
vn -0.9929 0.1092 0.0470
vn -0.0000 -1.0000 -0.0000
vn -0.0000 1.0000 -0.0000
vn -0.0380 0.2138 -0.9761
vn 0.8673 0.4975 0.0172
vn 0.0777 0.0252 0.9967
vn -0.9785 -0.2039 -0.0314
vn -0.7717 0.4685 -0.4301
vn 0.5327 0.8440 -0.0627
vt 0.974748 0.245557
vt 0.974748 0.219602
vt 0.990102 0.219602
vt 0.990102 0.245557
vt 0.974748 0.245557
vt 0.974748 0.219602
vt 0.990102 0.245557
vt 0.990102 0.219602
vt 0.974748 0.245557
vt 0.974748 0.219602
vt 0.990102 0.245557
vt 0.974748 0.245557
vt 0.990102 0.245557
vt 0.990102 0.219602
vt 0.974748 0.219602
vt 0.974748 0.245557
vt 0.990102 0.219602
vt 0.990102 0.245557
vt 0.990102 0.219602
vt 0.974748 0.219602
vt 0.977043 0.221358
vt 0.990102 0.236922
vt 0.990102 0.228238
vt 0.976429 0.239579
vt 0.976429 0.216011
vt 0.985229 0.236109
vt 0.979516 0.244806
vt 0.990102 0.232494
vt 0.990102 0.232666
vt 0.989032 0.239579
vt 0.989032 0.228614
vt 0.986325 0.231783
s 0
usemtl Rocks
f 38/96/45 37/94/45 35/91/45
f 38/97/46 41/105/46 37/95/46
f 42/108/47 39/98/47 41/104/47
f 36/93/48 35/90/48 39/99/48
f 41/106/49 35/90/49 37/95/49
f 42/109/50 36/93/50 40/101/50
f 44/115/51 38/96/51 35/91/51
f 42/107/52 41/105/52 38/97/52
f 40/102/53 39/98/53 42/108/53
f 40/103/54 36/93/54 39/99/54
f 41/106/49 39/100/49 35/90/49
f 46/121/50 36/93/50 42/109/50
f 44/115/51 43/111/51 38/96/51
f 35/91/51 36/92/51 44/115/51
f 36/92/51 45/117/51 44/115/51
f 46/121/50 45/118/50 36/93/50
f 42/109/50 38/97/50 46/121/50
f 38/97/50 43/112/50 46/121/50
usemtl 
f 46/119/55 43/110/55 44/113/55
f 46/120/56 44/114/56 45/116/56
o road-s-5
v -17.506567 -0.538073 0.662751
v -17.491547 -0.414304 0.687957
v -16.882500 -0.538073 0.567412
v -16.928026 -0.414304 0.604485
v -17.421486 -0.538073 1.184258
v -17.452602 -0.414304 1.183055
v -16.824432 -0.538073 1.118759
v -16.901850 -0.414304 1.104538
vn -0.1468 0.2339 -0.9611
vn 0.9243 0.3691 -0.0973
vn 0.1073 0.1795 0.9779
vn -0.9832 0.0866 0.1604
vn -0.0000 -1.0000 -0.0000
vn -0.0000 1.0000 -0.0000
vn -0.1431 0.2142 -0.9663
vn 0.8493 0.5261 -0.0445
vn 0.1410 0.0451 0.9890
vn -0.9672 -0.2424 0.0761
vt 0.974748 0.245557
vt 0.974748 0.219602
vt 0.990102 0.219602
vt 0.990102 0.245557
vt 0.974748 0.245557
vt 0.974748 0.219602
vt 0.990102 0.245557
vt 0.990102 0.219602
vt 0.974748 0.245557
vt 0.974748 0.219602
vt 0.990102 0.245557
vt 0.974748 0.245557
vt 0.990102 0.245557
vt 0.990102 0.219602
vt 0.974748 0.219602
vt 0.974748 0.245557
vt 0.990102 0.219602
vt 0.990102 0.245557
vt 0.990102 0.219602
vt 0.974748 0.219602
s 0
usemtl Rocks
f 47/123/57 50/128/57 49/126/57
f 50/129/58 53/137/58 49/127/58
f 54/140/59 51/130/59 53/136/59
f 51/131/60 48/125/60 47/122/60
f 49/127/61 51/132/61 47/122/61
f 54/141/62 48/125/62 52/133/62
f 47/123/63 48/124/63 50/128/63
f 50/129/64 54/139/64 53/137/64
f 54/140/65 52/134/65 51/130/65
f 51/131/66 52/135/66 48/125/66
f 49/127/61 53/138/61 51/132/61
f 54/141/62 50/129/62 48/125/62
o road-s-12
v -17.189096 -0.528574 0.056656
v -17.174788 -0.423803 0.081769
v -16.466772 -0.528574 0.007180
v -16.522833 -0.423803 0.039596
v -17.150375 -0.528574 0.561143
v -17.185726 -0.423803 0.557912
v -16.462191 -0.528574 0.538402
v -16.548887 -0.423803 0.519625
v -16.946363 -0.423803 0.066993
v -16.969507 -0.467375 0.057661
v -17.073318 -0.423803 0.075205
v -16.938864 -0.423803 0.229554
vn -0.0659 0.2626 -0.9627
vn 0.8807 0.4736 -0.0076
vn 0.0323 0.2022 0.9788
vn -0.9902 0.1170 0.0760
vn -0.0000 -1.0000 -0.0000
vn -0.0000 1.0000 -0.0000
vn -0.0627 0.2407 -0.9686
vn 0.7661 0.6414 0.0416
vn 0.0599 0.0510 0.9969
vn -0.9471 -0.3202 -0.0218
vn -0.8860 0.4619 0.0409
vn 0.3292 0.8997 -0.2867
vt 0.972294 0.319030
vt 0.972294 0.293075
vt 0.987647 0.319030
vt 0.987647 0.293075
vt 0.986011 0.317670
vt 0.972294 0.319030
vt 0.972294 0.293075
vt 0.987647 0.293075
vt 0.987647 0.319030
vt 0.986011 0.291715
vt 0.972294 0.319030
vt 0.972294 0.293075
vt 0.987647 0.319030
vt 0.970658 0.317670
vt 0.987647 0.319030
vt 0.987647 0.293075
vt 0.972294 0.293075
vt 0.972294 0.319030
vt 0.987647 0.293075
vt 0.987647 0.319030
vt 0.987647 0.293075
vt 0.970658 0.291715
vt 0.982219 0.290504
vt 0.987647 0.302169
vt 0.986011 0.308576
vt 0.981398 0.298685
vt 0.981398 0.307360
vt 0.981262 0.301485
vt 0.982659 0.319692
vt 0.987647 0.297115
vt 0.986011 0.313630
vt 0.988305 0.298685
vt 0.988305 0.314266
vt 0.980778 0.307924
s 0
usemtl Rocks
f 58/150/67 57/147/67 55/143/67
f 58/149/68 61/159/68 57/148/68
f 62/162/69 59/152/69 61/158/69
f 56/144/70 55/142/70 59/153/70
f 57/148/71 59/154/71 55/142/71
f 56/146/72 60/155/72 62/163/72
f 64/169/73 58/150/73 55/143/73
f 58/149/74 62/161/74 61/159/74
f 60/156/75 59/152/75 62/162/75
f 60/157/76 56/144/76 59/153/76
f 57/148/71 61/160/71 59/154/71
f 66/175/72 56/146/72 62/163/72
f 64/169/73 63/165/73 58/150/73
f 55/143/73 56/145/73 64/169/73
f 56/145/73 65/171/73 64/169/73
f 66/175/72 65/172/72 56/146/72
f 62/163/72 58/151/72 66/175/72
f 58/151/72 63/166/72 66/175/72
usemtl 
f 66/173/77 63/164/77 64/167/77
f 66/174/78 64/168/78 65/170/78
o road-s-6
v -16.733269 -0.538073 0.589453
v -16.717947 -0.414304 0.616679
v -16.141706 -0.538073 0.590496
v -16.184792 -0.414304 0.621574
v -16.734192 -0.538073 1.112903
v -16.763197 -0.414304 1.110518
v -16.142630 -0.538073 1.113946
v -16.221720 -0.414304 1.096869
v -16.387695 -0.414304 0.936256
v -16.493095 -0.414304 0.940295
v -16.279522 -0.414304 1.040934
v -16.208708 -0.414304 0.929398
v -16.171417 -0.486158 1.050311
v -16.219568 -0.414304 1.069185
vn 0.0017 0.2441 -0.9697
vn 0.9445 0.3284 0.0017
vn -0.0017 0.1356 0.9908
vn -0.9924 0.1232 -0.0018
vn -0.0000 -1.0000 -0.0000
vn -0.0000 1.0000 -0.0000
vn 0.0090 0.2138 -0.9768
vn 0.8368 0.5437 0.0650
vn 0.0252 0.0252 0.9994
vn -0.9694 -0.2289 -0.0888
vn 0.3777 0.4636 -0.8015
vn 0.0194 0.8621 0.5063
vt 0.974748 0.219602
vt 0.974748 0.245557
vt 0.990102 0.219602
vt 0.990102 0.245557
vt 0.974748 0.245557
vt 0.974748 0.219602
vt 0.990102 0.245557
vt 0.990102 0.219602
vt 0.974748 0.245557
vt 0.974748 0.219602
vt 0.990102 0.245557
vt 0.990102 0.245557
vt 0.990102 0.219602
vt 0.974748 0.245557
vt 0.974748 0.219602
vt 0.990102 0.219602
vt 0.974748 0.245557
vt 0.990102 0.219602
vt 0.974748 0.219602
vt 0.990102 0.245557
vt 0.979884 0.228284
vt 0.981231 0.249639
vt 0.984412 0.228620
vt 0.984412 0.246264
vt 0.979841 0.233330
vt 0.976537 0.222626
vt 0.977235 0.220299
vt 0.990102 0.236412
vt 0.980158 0.219602
vt 0.975828 0.255371
vt 0.981188 0.242474
vt 0.973573 0.228620
vt 0.973573 0.235425
vt 0.975643 0.219603
vt 0.990102 0.244046
vt 0.975221 0.217963
s 0
usemtl Rocks
f 67/176/79 70/182/79 69/180/79
f 70/183/80 73/192/80 69/181/80
f 74/193/81 71/184/81 73/190/81
f 68/179/82 67/177/82 71/185/82
f 73/191/83 67/177/83 69/181/83
f 72/189/84 77/201/84 76/200/84
f 67/176/85 68/178/85 70/182/85
f 70/183/86 78/203/86 79/206/86
f 72/187/87 71/184/87 74/193/87
f 72/188/88 68/179/88 71/185/88
f 73/191/83 71/186/83 67/177/83
f 74/194/84 80/209/84 77/201/84
f 70/183/84 75/196/84 78/204/84
f 76/200/84 75/196/84 68/179/84
f 72/189/84 74/194/84 77/201/84
f 76/200/84 68/179/84 72/189/84
f 80/210/86 74/195/86 79/206/86
f 74/195/86 73/192/86 79/206/86
f 73/192/86 70/183/86 79/206/86
f 70/183/84 68/179/84 75/196/84
usemtl 
f 77/202/89 79/207/89 76/198/89
f 79/208/90 75/197/90 76/199/90
f 77/202/89 80/211/89 79/207/89
f 79/208/90 78/205/90 75/197/90
o road-s-11
v -17.850649 -0.538073 1.175157
v -17.843033 -0.414304 1.145976
v -17.874453 -0.538073 0.652247
v -17.572550 -0.538073 1.162497
v -17.572550 -0.414304 1.162497
v -17.596354 -0.538073 0.639587
v -17.607960 -0.414304 0.678251
v -17.663424 -0.414304 0.864829
v -17.692141 -0.414304 0.845744
v -17.677950 -0.414304 0.817512
v -17.865541 -0.446161 0.670309
v -17.860071 -0.414304 0.734138
v -17.720936 -0.414304 0.677504
v -17.763744 -0.485713 0.663234
vn -0.9964 0.0720 0.0454
vn -0.0435 0.2942 -0.9548
vn 0.9932 0.1073 -0.0452
vn 0.0443 0.2267 0.9730
vn -0.0000 -1.0000 -0.0000
vn -0.0000 1.0000 -0.0000
vn -0.9952 0.0884 0.0412
vn 0.0065 0.1923 -0.9813
vn 0.9973 -0.0000 -0.0729
vn -0.0610 -0.0000 0.9981
vn -0.8501 0.4574 0.2610
vn 0.2969 0.8440 -0.4467
vn 0.0065 0.1922 -0.9813
vt 0.970658 0.291715
vt 0.970658 0.317670
vt 0.986011 0.317670
vt 0.986011 0.291715
vt 0.970658 0.317670
vt 0.970658 0.291715
vt 0.970658 0.317670
vt 0.970658 0.291715
vt 0.986011 0.317670
vt 0.986011 0.317670
vt 0.986011 0.291715
vt 0.970658 0.317670
vt 0.970658 0.317670
vt 0.970658 0.291715
vt 0.986011 0.291715
vt 0.986011 0.291715
vt 0.970658 0.291715
vt 0.986011 0.317670
vt 0.985161 0.298685
vt 0.974598 0.301942
vt 0.985161 0.311122
vt 0.976156 0.301009
vt 0.984162 0.312064
vt 0.975229 0.299442
vt 0.983635 0.296139
vt 0.982059 0.317670
vt 0.982059 0.291715
vt 0.976356 0.312955
vt 0.986011 0.294898
vt 0.986011 0.314486
vt 0.978318 0.317572
vt 0.977473 0.291715
vt 0.986011 0.306147
vt 0.979118 0.288606
vt 0.977153 0.302488
vt 0.977699 0.298685
vt 0.977699 0.303660
s 0
usemtl Rocks
f 82/215/91 83/216/91 81/212/91
f 87/229/92 86/224/92 83/217/92
f 87/227/93 84/218/93 86/225/93
f 82/214/94 81/213/94 84/219/94
f 86/226/95 81/213/95 83/217/95
f 85/223/96 87/228/96 88/231/96
f 82/215/97 91/237/97 83/216/97
f 87/229/98 83/217/98 94/246/98
f 85/221/99 84/218/99 87/227/99
f 82/214/100 84/219/100 85/222/100
f 86/226/95 84/220/95 81/213/95
f 90/235/96 87/228/96 93/243/96
f 92/240/96 82/214/96 89/233/96
f 88/231/96 89/233/96 82/214/96
f 87/228/96 90/235/96 88/231/96
f 88/231/96 82/214/96 85/223/96
f 82/215/97 92/241/97 91/237/97
f 94/246/103 93/244/103 87/229/103
f 83/217/103 91/238/103 94/246/103
usemtl 
f 90/236/101 94/247/101 88/230/101
f 89/234/102 94/248/102 91/239/102
f 90/236/101 93/245/101 94/247/101
f 91/239/102 92/242/102 89/234/102
f 89/234/102 88/232/102 94/248/102
o road-s-10
v -18.433998 -0.538073 1.191628
v -18.418922 -0.414304 1.162388
v -18.448698 -0.538073 0.668383
v -18.428659 -0.414304 0.692673
v -17.939152 -0.538073 1.177724
v -17.939152 -0.414304 1.177724
v -17.953854 -0.538073 0.654479
v -17.976521 -0.414304 0.693226
vn -0.9915 0.1273 0.0279
vn -0.0268 0.2942 -0.9554
vn 0.9817 0.1884 -0.0276
vn 0.0274 0.2267 0.9736
vn -0.0000 -1.0000 -0.0000
vn -0.0000 1.0000 -0.0000
vn -0.9876 0.1559 0.0205
vn 0.0012 0.1924 -0.9813
vn 0.9970 -0.0000 -0.0769
vn -0.0319 -0.0000 0.9995
vt 0.971067 0.154974
vt 0.971067 0.180929
vt 0.986420 0.154974
vt 0.986420 0.180929
vt 0.971067 0.180929
vt 0.971067 0.154974
vt 0.986420 0.180929
vt 0.986420 0.154974
vt 0.971067 0.180929
vt 0.971067 0.154974
vt 0.986420 0.180929
vt 0.971067 0.180929
vt 0.986420 0.180929
vt 0.986420 0.154974
vt 0.971067 0.180929
vt 0.971067 0.154974
vt 0.986420 0.154974
vt 0.986420 0.180929
vt 0.986420 0.154974
vt 0.971067 0.154974
s 0
usemtl Rocks
f 96/251/104 97/253/104 95/249/104
f 97/254/105 102/266/105 101/263/105
f 102/267/106 99/257/106 101/264/106
f 99/258/107 96/252/107 95/250/107
f 101/265/108 95/250/108 97/254/108
f 102/268/109 96/252/109 100/260/109
f 96/251/110 98/255/110 97/253/110
f 97/254/111 98/256/111 102/266/111
f 102/267/112 100/261/112 99/257/112
f 99/258/113 100/262/113 96/252/113
f 101/265/108 99/259/108 95/250/108
f 102/268/109 98/256/109 96/252/109
o road-s-9
v -18.437487 -0.538073 -0.016074
v -18.431044 -0.422444 -0.041766
v -18.443096 -0.538073 -0.539495
v -18.432970 -0.414304 -0.514759
v -18.185196 -0.538073 -0.018778
v -18.190834 -0.448345 -0.005407
v -18.190805 -0.538073 -0.542199
v -18.202499 -0.414304 -0.503976
vn -0.9983 0.0580 0.0107
vn -0.0102 0.2942 -0.9557
vn 0.9952 0.0973 -0.0107
vn 0.0106 -0.1467 0.9891
vn -0.0000 -1.0000 -0.0000
vn 0.0972 0.9931 0.0655
vn -0.9967 0.0805 0.0054
vn 0.0459 0.1922 -0.9803
vn 0.9977 0.0655 -0.0189
vn -0.1225 0.2218 0.9674
vn -0.0008 0.9999 0.0172
vt 0.974748 0.219602
vt 0.974748 0.245557
vt 0.990102 0.219602
vt 0.990102 0.245557
vt 0.974748 0.245557
vt 0.974748 0.219602
vt 0.990102 0.245557
vt 0.990102 0.219602
vt 0.974748 0.219602
vt 0.974748 0.245557
vt 0.990102 0.245557
vt 0.974748 0.245557
vt 0.990102 0.245557
vt 0.990102 0.219602
vt 0.974748 0.245557
vt 0.974748 0.219602
vt 0.990102 0.219602
vt 0.990102 0.245557
vt 0.990102 0.219602
vt 0.974748 0.219602
s 0
usemtl Rocks
f 104/271/114 105/273/114 103/269/114
f 105/274/115 110/286/115 109/283/115
f 110/287/116 107/278/116 109/284/116
f 108/282/117 103/270/117 107/277/117
f 109/285/118 103/270/118 105/274/118
f 110/288/119 104/272/119 108/280/119
f 104/271/120 106/275/120 105/273/120
f 105/274/121 106/276/121 110/286/121
f 110/287/122 108/281/122 107/278/122
f 108/282/123 104/272/123 103/270/123
f 109/285/118 107/279/118 103/270/118
f 110/288/124 106/276/124 104/272/124
o road-s-8
v -16.893358 -0.538073 -0.599108
v -16.814217 -0.414304 -0.535450
v -16.301819 -0.538073 -0.593828
v -16.252691 -0.414304 -0.584939
v -16.898029 -0.538073 -0.075678
v -16.908855 -0.414304 -0.027413
v -16.306492 -0.538073 -0.070398
v -16.305588 -0.414304 -0.060088
v -16.665960 -0.414304 -0.548517
v -16.577311 -0.451737 -0.560327
v -16.555340 -0.414304 -0.558266
v -16.513777 -0.414304 -0.447376
vn 0.0080 0.4533 -0.8913
vn 0.9292 -0.3694 0.0083
vn -0.0089 -0.0829 0.9965
vn -0.8407 0.5414 -0.0075
vn -0.0000 -1.0000 -0.0000
vn -0.0000 1.0000 -0.0000
vn -0.0873 0.1058 -0.9905
vn 0.9948 -0.0156 0.1003
vn 0.0505 -0.3590 0.9320
vn -0.9830 -0.0146 -0.1831
vn -0.8273 0.4685 0.3101
vn 0.2969 0.8440 -0.4467
vt 0.974748 0.219602
vt 0.974748 0.245557
vt 0.990102 0.219602
vt 0.990102 0.245557
vt 0.974748 0.219602
vt 0.974748 0.245557
vt 0.990102 0.245557
vt 0.990102 0.219602
vt 0.974748 0.245557
vt 0.974748 0.219602
vt 0.990102 0.245557
vt 0.974748 0.245557
vt 0.990102 0.245557
vt 0.990102 0.219602
vt 0.974748 0.219602
vt 0.974748 0.245557
vt 0.990102 0.219602
vt 0.990102 0.245557
vt 0.990102 0.219602
vt 0.974748 0.219602
vt 0.980542 0.245551
vt 0.990102 0.226455
vt 0.990102 0.238705
vt 0.981385 0.224864
vt 0.981385 0.234383
vt 0.985458 0.231240
vt 0.990102 0.233592
vt 0.981879 0.220139
vt 0.990102 0.231568
vt 0.984988 0.224864
vt 0.984988 0.237987
vt 0.986721 0.231132
s 0
usemtl Rocks
f 112/291/125 113/294/125 111/289/125
f 114/296/126 117/304/126 113/293/126
f 115/297/127 117/303/127 118/307/127
f 112/292/128 111/290/128 115/298/128
f 113/293/129 117/305/129 111/290/129
f 118/308/130 112/292/130 116/300/130
f 113/294/131 112/291/131 120/314/131
f 114/296/132 118/306/132 117/304/132
f 116/301/133 115/297/133 118/307/133
f 112/292/134 115/298/134 116/302/134
f 111/290/129 117/305/129 115/299/129
f 114/296/130 121/315/130 122/320/130
f 121/317/131 114/295/131 120/314/131
f 114/295/131 113/294/131 120/314/131
f 112/291/131 119/310/131 120/314/131
f 119/311/130 112/292/130 122/320/130
f 112/292/130 118/308/130 122/320/130
f 118/308/130 114/296/130 122/320/130
usemtl 
f 122/318/135 121/316/135 120/312/135
f 120/313/136 119/309/136 122/319/136
o road-s-7
v -16.401299 -0.528574 0.030797
v -16.393522 -0.423803 0.056612
v -16.014536 -0.528574 0.019591
v -16.044428 -0.423803 0.048976
v -16.378345 -0.528574 0.536247
v -16.397299 -0.423803 0.531155
v -16.009756 -0.528574 0.549915
v -16.056284 -0.423803 0.526598
vn -0.0279 0.2625 -0.9645
vn 0.9609 0.2766 -0.0087
vn -0.0363 0.2017 0.9788
vn -0.9970 0.0628 0.0453
vn -0.0000 -1.0000 -0.0000
vn -0.0000 1.0000 -0.0000
vn -0.0212 0.2407 -0.9704
vn 0.9118 0.4100 0.0226
vn 0.0133 0.0509 0.9986
vn -0.9839 -0.1784 -0.0078
vt 0.974748 0.245557
vt 0.974748 0.219602
vt 0.990102 0.219602
vt 0.990102 0.245557
vt 0.989284 0.243517
vt 0.974748 0.245557
vt 0.974748 0.219602
vt 0.990102 0.245557
vt 0.990102 0.219602
vt 0.989284 0.217562
vt 0.974748 0.245557
vt 0.974748 0.219602
vt 0.990102 0.245557
vt 0.973930 0.243517
vt 0.990102 0.245557
vt 0.990102 0.219602
vt 0.974748 0.219602
vt 0.974748 0.245557
vt 0.990102 0.219602
vt 0.990102 0.245557
vt 0.990102 0.219602
vt 0.973930 0.217562
s 0
usemtl Rocks
f 123/322/137 126/328/137 125/326/137
f 126/329/138 129/338/138 125/327/138
f 130/341/139 127/331/139 129/337/139
f 127/332/140 124/324/140 123/321/140
f 125/327/141 127/333/141 123/321/141
f 130/342/142 124/325/142 128/334/142
f 123/322/143 124/323/143 126/328/143
f 126/329/144 130/340/144 129/338/144
f 130/341/145 128/335/145 127/331/145
f 127/332/146 128/336/146 124/324/146
f 125/327/141 129/339/141 127/333/141
f 130/342/142 126/330/142 124/325/142
