# Blender 3.4.1
# www.blender.org
mtllib road-circular.mtl
o road-c-1
v -14.432499 -0.580268 0.484352
v -14.207587 -0.562502 -0.193966
v -13.925930 -0.378360 0.242565
v -14.203131 -0.320605 0.061637
v -14.028185 -0.580268 0.431013
v -13.953972 -0.580268 0.030006
v -14.284578 -0.638022 0.046564
v -13.847730 -0.516610 0.152754
v -14.112095 -0.516610 0.569987
v -14.680244 -0.545427 0.189911
v -14.590603 -0.516610 0.447493
v -14.473242 -0.516610 -0.186658
v -14.649048 -0.442018 0.004457
v -14.184601 -0.432155 -0.230072
v -13.912128 -0.442018 0.404318
v -14.371249 -0.442017 0.586479
v -13.943495 -0.442018 -0.088619
v -14.221680 -0.378360 0.523368
v -14.580128 -0.378360 0.328867
v -14.505916 -0.378360 -0.072140
vn 0.0180 -0.9904 0.1368
vn -0.2072 -0.9765 0.0588
vn 0.7482 -0.5591 0.3573
vn -0.1086 -0.5591 0.8220
vn 0.5160 -0.5800 -0.6303
vn 0.6644 -0.4412 0.6033
vn -0.3684 -0.4412 0.8183
vn -0.0705 -0.2547 -0.9644
vn 0.7790 -0.4412 -0.4454
vn 0.3205 0.9269 -0.1952
vn 0.2335 0.9131 -0.3343
vn -0.0198 0.9334 -0.3582
vn -0.1736 0.9843 -0.0321
vn -0.4412 0.8937 -0.0816
vn -0.0658 0.9904 0.1212
vn -0.2140 0.8937 0.3943
vn 0.1215 0.9843 0.1280
vn 0.3089 0.8937 0.3254
vn 0.8153 0.5591 -0.1507
vn -0.2830 0.5713 -0.7704
vn -0.8881 0.4485 0.1007
vn -0.5710 0.5591 0.6011
vn 0.3953 0.5591 0.7288
vn 0.4713 -0.3117 -0.8251
vn -0.5680 0.4412 -0.6947
vn -0.7069 -0.5605 -0.4315
vn -0.9081 0.3102 0.2813
vn 0.1829 0.4412 0.8786
vn 0.8921 0.4412 0.0975
vn 0.1544 -0.9557 -0.2506
vn -0.1690 -0.9236 -0.3441
vn -0.3018 -0.9235 -0.2366
vn -0.4103 -0.8795 0.2412
vn 0.4412 -0.8937 0.0816
vn 0.1736 -0.9843 0.0321
vn 0.0587 -0.8937 0.4448
vt 0.990571 0.437441
vt 0.973998 0.420867
vt 0.990571 0.420867
vt 0.986826 0.433696
vt 0.973998 0.420867
vt 0.990571 0.420867
vt 0.990571 0.428530
vt 0.990571 0.437441
vt 0.973998 0.420867
vt 0.990571 0.420867
vt 0.990571 0.424613
vt 0.990571 0.437441
vt 0.990571 0.437441
vt 0.980620 0.427489
vt 0.986826 0.420867
vt 0.977743 0.420867
vt 0.973998 0.420867
vt 0.986826 0.433696
vt 0.990571 0.437441
vt 0.983950 0.420867
vt 0.973998 0.420867
vt 0.990571 0.420867
vt 0.990571 0.433351
vt 0.973998 0.420867
vt 0.990571 0.420867
vt 0.986482 0.433351
vt 0.990571 0.433351
vt 0.986482 0.433351
vt 0.973998 0.420867
vt 0.990571 0.420867
vt 0.990571 0.437441
vt 0.990571 0.437441
vt 0.986826 0.420867
vt 0.973998 0.420867
vt 0.990571 0.420867
vt 0.986826 0.433696
vt 0.986482 0.433351
vt 0.973998 0.420867
vt 0.990571 0.420867
vt 0.990571 0.437441
vt 0.990571 0.420867
vt 0.973998 0.420867
vt 0.978088 0.420867
vt 0.990571 0.437441
vt 0.978088 0.420867
vt 0.978088 0.424957
vt 0.990571 0.420867
vt 0.990571 0.437441
vt 0.990571 0.420867
vt 0.990571 0.425014
vt 0.981710 0.428580
vt 0.990571 0.437441
vt 0.990571 0.437441
vt 0.990571 0.424957
vt 0.990571 0.420867
vt 0.978088 0.424957
vt 0.990571 0.437441
vt 0.990571 0.424957
vt 0.990571 0.420867
vt 0.978088 0.424957
vt 0.990571 0.437441
vt 0.990571 0.424957
vt 0.973998 0.420867
vt 0.990571 0.420867
vt 0.978088 0.424957
vt 0.990571 0.420867
vt 0.990571 0.424613
vt 0.973998 0.420867
vt 0.990571 0.437441
vt 0.990571 0.420867
vt 0.973998 0.420867
vt 0.990571 0.424613
vt 0.990571 0.437441
vt 0.973998 0.420867
vt 0.990571 0.424613
vt 0.990571 0.437441
s 0
usemtl Rocks
f 7/20/1 5/16/1 1/1/1
f 7/20/2 1/3/2 10/32/2
f 5/16/3 8/23/3 15/53/3
f 1/2/4 9/27/4 16/57/4
f 6/17/5 2/6/5 17/61/5
f 5/16/6 15/54/6 9/28/6
f 1/2/7 16/58/7 11/37/7
f 2/5/8 12/41/8 14/52/8
f 6/17/9 17/62/9 8/26/9
f 3/9/10 17/64/10 4/13/10
f 17/63/11 14/49/11 4/13/11
f 4/14/12 14/50/12 20/75/12
f 20/74/13 19/70/13 4/14/13
f 20/74/14 13/45/14 19/72/14
f 19/71/15 18/66/15 4/14/15
f 19/71/16 16/59/16 18/67/16
f 18/68/17 3/10/17 4/14/17
f 18/68/18 15/55/18 3/11/18
f 8/24/19 17/64/19 3/12/19
f 12/43/20 20/75/20 14/51/20
f 10/34/21 19/72/21 13/46/21
f 11/38/22 16/59/22 19/73/22
f 9/29/23 15/55/23 18/69/23
f 17/65/24 2/6/24 14/52/24
f 12/43/25 13/47/25 20/76/25
f 12/42/26 10/33/26 13/48/26
f 10/34/27 11/39/27 19/73/27
f 16/60/28 9/30/28 18/69/28
f 15/56/29 8/25/29 3/12/29
f 6/18/30 7/20/30 2/7/30
f 7/21/31 12/43/31 2/8/31
f 7/21/32 10/35/32 12/44/32
f 10/36/33 1/3/33 11/40/33
f 8/26/34 5/16/34 6/19/34
f 5/15/35 7/22/35 6/19/35
f 1/4/36 5/16/36 9/31/36
o road-c-12
v -13.396366 -0.579181 0.892450
v -13.598915 -0.435166 0.448086
v -13.554866 -0.580274 0.522626
v -13.878395 -0.581459 0.494325
v -13.637834 -0.583495 1.120559
v -13.871794 -0.639107 0.832910
v -13.904435 -0.442226 0.474351
v -13.289786 -0.479314 0.808644
v -13.375239 -0.512898 0.589904
v -13.359977 -0.445260 1.023904
v -14.166690 -0.517531 1.124239
v -13.796845 -0.493961 1.262668
v -14.126528 -0.479314 0.629976
v -14.239192 -0.513811 0.855059
v -14.246994 -0.395160 1.030806
v -13.386734 -0.379987 0.724843
v -13.804088 -0.320518 0.740459
v -13.673220 -0.383361 1.176141
v -14.113132 -0.382569 1.191581
v -14.202072 -0.378733 0.808107
vn 0.1315 -0.9899 -0.0534
vn 0.1121 -0.9887 0.1000
vn 0.0800 -0.4361 -0.8963
vn 0.6241 -0.7712 -0.1254
vn -0.5216 -0.7647 -0.3783
vn 0.4322 -0.3048 -0.8487
vn 0.7711 -0.5402 0.3369
vn -0.5356 -0.2172 -0.8161
vn -0.0554 0.9157 -0.3979
vn -0.1932 0.9178 -0.3469
vn -0.1376 0.9896 0.0418
vn -0.1453 0.9884 0.0436
vn 0.0067 0.9900 0.1408
vn 0.1440 0.9846 0.0988
vn 0.2748 0.9442 0.1815
vn 0.1247 0.9503 -0.2851
vn -0.5106 0.6378 -0.5767
vn -0.9628 0.2023 -0.1793
vn -0.8851 -0.4030 0.2328
vn -0.7678 -0.0149 0.6405
vn 0.0292 0.5954 0.8029
vn 0.6679 0.7373 0.1012
vn 0.5642 0.6118 -0.5545
vn -0.8959 0.0954 -0.4338
vn -0.3139 -0.3212 0.8935
vn -0.1081 -0.8912 0.4405
vn 0.4578 0.1709 0.8725
vn 0.4731 -0.4032 0.7834
vn 0.5181 -0.6667 0.5358
vn 0.8015 0.4587 -0.3836
vn -0.0810 -0.1564 -0.9844
vn -0.3272 -0.9326 -0.1524
vn -0.3180 -0.9453 0.0726
vn -0.1169 -0.9530 0.2794
vn 0.0183 -0.9856 -0.1682
vn 0.4011 -0.9003 -0.1692
vt 0.992208 0.366690
vt 0.992208 0.350116
vt 0.975634 0.350116
vt 0.988620 0.350116
vt 0.988620 0.363102
vt 0.992208 0.366690
vt 0.992208 0.353669
vt 0.975634 0.350116
vt 0.992208 0.350116
vt 0.982483 0.356965
vt 0.988413 0.350116
vt 0.979429 0.350116
vt 0.975634 0.350116
vt 0.992208 0.350116
vt 0.988117 0.362599
vt 0.984804 0.359286
vt 0.992208 0.366690
vt 0.987329 0.350116
vt 0.982406 0.350116
vt 0.975634 0.350116
vt 0.992208 0.350116
vt 0.984002 0.350116
vt 0.975634 0.350116
vt 0.992208 0.350116
vt 0.979279 0.350116
vt 0.979279 0.353761
vt 0.992208 0.366690
vt 0.992208 0.366690
vt 0.992208 0.350116
vt 0.975634 0.350116
vt 0.992208 0.362979
vt 0.988497 0.362979
vt 0.975634 0.350116
vt 0.992208 0.350116
vt 0.992208 0.366690
vt 0.979665 0.350116
vt 0.979665 0.354147
vt 0.992208 0.350116
vt 0.992208 0.366690
vt 0.989446 0.350116
vt 0.980594 0.352878
vt 0.975634 0.350116
vt 0.992208 0.350116
vt 0.992208 0.366690
vt 0.982845 0.350116
vt 0.992208 0.350116
vt 0.992208 0.359479
vt 0.975634 0.350116
vt 0.992208 0.366690
vt 0.992208 0.350116
vt 0.975634 0.350116
vt 0.992208 0.363060
vt 0.975634 0.350116
vt 0.992208 0.350116
vt 0.992208 0.366690
vt 0.992208 0.350116
vt 0.992208 0.366690
vt 0.992208 0.350116
vt 0.975634 0.350116
vt 0.992208 0.352983
vt 0.992208 0.366690
vt 0.982375 0.356857
vt 0.992208 0.356857
vt 0.992208 0.366690
vt 0.992208 0.350116
vt 0.975634 0.350116
vt 0.992208 0.352098
vt 0.992208 0.366690
vt 0.992208 0.350116
vt 0.975634 0.350116
vt 0.992208 0.352213
vt 0.992208 0.366690
vt 0.975634 0.350116
vt 0.992208 0.353225
vt 0.992208 0.366690
s 0
usemtl Rocks
f 26/98/37 23/88/37 21/77/37
f 26/98/38 21/78/38 25/93/38
f 23/88/39 24/90/39 22/82/39
f 21/79/40 29/107/40 28/104/40
f 24/89/41 34/128/41 33/125/41
f 23/88/42 22/83/42 29/108/42
f 21/79/43 28/105/43 30/115/43
f 24/89/44 33/126/44 27/103/44
f 22/84/45 27/101/45 37/140/45
f 37/138/46 27/101/46 40/150/46
f 40/149/47 39/145/47 37/139/47
f 40/149/48 35/132/48 39/147/48
f 39/146/49 38/141/49 37/139/49
f 38/142/50 36/134/50 37/139/50
f 38/142/51 30/112/51 36/136/51
f 36/135/52 22/85/52 37/140/52
f 33/127/53 40/150/53 27/102/53
f 34/129/54 35/132/54 40/151/54
f 34/129/55 31/116/55 35/133/55
f 31/117/56 39/147/56 35/133/56
f 32/121/57 38/143/57 39/148/57
f 28/106/58 36/136/58 30/113/58
f 29/109/59 22/85/59 36/137/59
f 33/127/60 34/130/60 40/151/60
f 31/117/61 32/122/61 39/148/61
f 31/118/62 25/94/62 32/123/62
f 32/124/63 30/114/63 38/144/63
f 32/124/64 25/95/64 30/115/64
f 25/96/65 21/80/65 30/115/65
f 28/106/66 29/110/66 36/137/66
f 22/86/67 24/90/67 27/103/67
f 24/91/68 26/98/68 34/131/68
f 26/99/69 31/119/69 34/131/69
f 26/99/70 25/97/70 31/120/70
f 23/87/71 26/100/71 24/92/71
f 21/81/72 23/88/72 29/111/72
o road-c-11
v -14.762330 -0.579177 1.241241
v -14.654722 -0.521484 0.422706
v -14.307003 -0.435249 1.084950
v -14.382417 -0.580323 1.118967
v -14.321714 -0.581242 0.804749
v -14.957947 -0.583666 0.980875
v -14.654133 -0.639004 0.776709
v -14.300565 -0.442817 0.788262
v -14.693172 -0.479314 1.353217
v -14.468893 -0.513532 1.288973
v -15.039651 -0.479314 0.985820
v -14.896544 -0.444875 1.264560
v -14.921832 -0.510424 0.471713
v -15.056843 -0.437868 0.661598
v -14.429289 -0.479314 0.556671
v -14.603315 -0.379543 1.265470
v -14.573564 -0.320439 0.866477
v -14.953656 -0.380257 1.052173
v -14.971745 -0.382468 0.517659
v -14.714354 -0.379669 0.400175
vn 0.0411 -0.9897 0.1370
vn -0.1120 -0.9885 0.1012
vn 0.8899 -0.4220 0.1732
vn 0.0669 -0.7648 0.6408
vn 0.4358 -0.7502 -0.4972
vn 0.8005 -0.2936 0.5225
vn -0.4116 -0.5390 0.7349
vn -0.7877 -0.6150 -0.0368
vn 0.8708 -0.1872 -0.4545
vn 0.4055 0.9140 -0.0145
vn 0.3458 0.9121 -0.2203
vn -0.0600 0.9923 -0.1079
vn -0.1549 0.9879 0.0012
vn -0.5283 0.8489 0.0144
vn -0.0870 0.9864 0.1396
vn -0.2059 0.9194 0.3351
vn 0.2762 0.9475 0.1610
vn 0.4885 0.7784 -0.3942
vn -0.1848 -0.2295 -0.9556
vn -0.4112 0.1617 -0.8971
vn -0.7879 0.6042 0.1190
vn -0.1649 0.7309 0.6622
vn 0.4941 0.6052 0.6242
vn 0.4994 0.0728 -0.8633
vn -0.8308 -0.1298 -0.5412
vn -0.6273 -0.7634 -0.1543
vn -0.8104 0.4632 0.3588
vn -0.7008 -0.5691 0.4301
vn -0.5894 -0.6679 0.4544
vn 0.3087 0.4561 0.8347
vn 0.9887 -0.1481 0.0252
vn 0.1881 -0.9320 -0.3097
vn -0.0966 -0.9447 -0.3134
vn -0.2775 -0.9480 -0.1560
vn 0.1682 -0.9851 0.0354
vn 0.1325 -0.8978 0.4201
vt 0.987299 0.310905
vt 0.987299 0.294331
vt 0.970725 0.294331
vt 0.983706 0.294331
vt 0.983706 0.307312
vt 0.987299 0.304698
vt 0.970725 0.294331
vt 0.987299 0.294331
vt 0.987299 0.302917
vt 0.987299 0.310905
vt 0.987299 0.310905
vt 0.987299 0.297846
vt 0.970725 0.294331
vt 0.987299 0.294331
vt 0.977577 0.301182
vt 0.983490 0.294331
vt 0.974535 0.294331
vt 0.970725 0.294331
vt 0.987299 0.294331
vt 0.983247 0.306853
vt 0.979909 0.303515
vt 0.987299 0.310905
vt 0.982381 0.294331
vt 0.977521 0.294331
vt 0.970725 0.294331
vt 0.987299 0.294331
vt 0.979233 0.294331
vt 0.970725 0.294331
vt 0.987299 0.294331
vt 0.974295 0.294331
vt 0.974295 0.297901
vt 0.987299 0.310905
vt 0.987299 0.310905
vt 0.987299 0.294331
vt 0.970725 0.294331
vt 0.987299 0.307034
vt 0.983428 0.307034
vt 0.970725 0.294331
vt 0.987299 0.294331
vt 0.987299 0.310905
vt 0.987299 0.294331
vt 0.970725 0.294331
vt 0.974840 0.294331
vt 0.974840 0.298445
vt 0.987299 0.294331
vt 0.987299 0.310905
vt 0.987299 0.294331
vt 0.970725 0.294331
vt 0.973316 0.294331
vt 0.987299 0.310905
vt 0.972228 0.294331
vt 0.972228 0.295834
vt 0.987299 0.294331
vt 0.987299 0.310905
vt 0.987299 0.310905
vt 0.987299 0.294331
vt 0.970725 0.294331
vt 0.987299 0.294331
vt 0.970725 0.294331
vt 0.987299 0.297351
vt 0.987299 0.310905
vt 0.977595 0.301201
vt 0.987299 0.301201
vt 0.987299 0.310905
vt 0.987299 0.294331
vt 0.970725 0.294331
vt 0.987299 0.297719
vt 0.987299 0.310905
vt 0.987299 0.294331
vt 0.970725 0.294331
vt 0.987299 0.296454
vt 0.987299 0.310905
vt 0.980909 0.294331
vt 0.987299 0.297570
vt 0.987299 0.310905
vt 0.987299 0.300721
s 0
usemtl Rocks
f 47/178/73 44/168/73 41/152/73
f 47/178/74 41/153/74 46/173/74
f 44/168/75 45/170/75 43/162/75
f 41/154/76 50/187/76 49/184/76
f 45/169/77 42/157/77 55/206/77
f 44/168/78 43/163/78 50/188/78
f 41/154/79 49/185/79 52/197/79
f 46/175/80 51/192/80 54/205/80
f 45/169/81 55/207/81 48/183/81
f 43/164/82 48/181/82 57/215/82
f 57/213/83 48/181/83 60/225/83
f 60/224/84 59/220/84 57/214/84
f 59/221/85 58/216/85 57/214/85
f 59/221/86 54/202/86 58/218/86
f 58/217/87 56/209/87 57/214/87
f 58/217/88 52/194/88 56/211/88
f 56/210/89 43/165/89 57/215/89
f 55/208/90 60/225/90 48/182/90
f 42/158/91 53/198/91 60/226/91
f 53/200/92 59/222/92 60/226/92
f 51/193/93 58/218/93 54/203/93
f 49/186/94 56/211/94 52/195/94
f 50/189/95 43/165/95 56/212/95
f 55/208/96 42/159/96 60/227/96
f 53/200/97 54/204/97 59/223/97
f 53/199/98 46/174/98 54/205/98
f 51/193/99 52/196/99 58/219/99
f 51/193/100 46/175/100 52/197/100
f 46/176/101 41/155/101 52/197/101
f 49/186/102 50/190/102 56/212/102
f 43/166/103 45/170/103 48/183/103
f 45/171/104 47/178/104 42/160/104
f 47/179/105 53/200/105 42/161/105
f 47/179/106 46/177/106 53/201/106
f 44/167/107 47/180/107 45/172/107
f 41/156/108 44/168/108 50/191/108
o road-c-10
v -13.399217 -0.526892 0.500491
v -13.617800 -0.517939 0.023265
v -13.213103 -0.445352 0.592419
v -12.956460 -0.438396 -0.020928
v -12.954567 -0.567429 0.078962
v -12.932384 -0.565041 0.385976
v -13.287796 -0.567436 -0.098242
v -13.325603 -0.617383 0.177864
v -13.437739 -0.577035 0.400706
v -13.165312 -0.513198 -0.152069
v -12.853323 -0.479314 0.433360
v -12.825815 -0.479314 0.199509
v -13.037651 -0.504745 0.585489
v -13.744841 -0.425831 0.236938
v -13.449054 -0.441709 -0.153507
v -12.882370 -0.394958 0.410264
v -13.234035 -0.342751 0.105665
v -13.313682 -0.365887 0.417492
v -13.695182 -0.396550 0.331919
v -13.594271 -0.393222 -0.025510
vn 0.1329 -0.9911 -0.0019
vn 0.0289 -0.9809 0.1921
vn 0.5825 -0.4922 -0.6469
vn -0.1571 -0.5591 0.8141
vn -0.4788 -0.8731 0.0917
vn -0.3357 -0.7051 -0.6246
vn 0.7573 -0.3928 -0.5217
vn 0.4962 -0.7232 0.4804
vn -0.1304 -0.5344 -0.8351
vn 0.0685 0.9226 0.3797
vn 0.1106 0.8944 -0.4333
vn -0.0014 0.9346 -0.3557
vn -0.1290 0.9913 -0.0272
vn -0.3653 0.9261 -0.0945
vn -0.0913 0.9945 0.0505
vn 0.0685 0.9935 0.0912
vn 0.2642 0.9540 -0.1415
vn 0.1805 0.7026 -0.6883
vn -0.8652 -0.0325 -0.5004
vn -0.2254 0.5384 0.8120
vn -0.5501 0.5946 0.5864
vn 0.2620 0.6961 0.6684
vn 0.5529 0.3917 0.7354
vn 0.5537 0.8137 -0.1771
vn -0.6816 -0.1514 -0.7159
vn -0.5713 -0.6513 0.4995
vn -0.5851 -0.6111 0.5330
vn 0.9302 0.3503 0.1094
vn 0.7091 -0.7001 0.0834
vn 0.5872 -0.8086 -0.0361
vn -0.2178 -0.9548 -0.2025
vn -0.3256 -0.9455 0.0073
vn -0.0553 -0.8834 0.4653
vn 0.0315 -0.9520 0.3043
vn 0.2154 -0.8885 -0.4051
vn 0.0881 -0.9822 -0.1656
vt 0.972466 0.296072
vt 0.970725 0.294331
vt 0.987299 0.294331
vt 0.987299 0.296072
vt 0.987299 0.310905
vt 0.981216 0.304822
vt 0.987299 0.304822
vt 0.970725 0.294331
vt 0.987299 0.294331
vt 0.987299 0.303403
vt 0.987299 0.310905
vt 0.987299 0.310905
vt 0.970725 0.294331
vt 0.987299 0.294331
vt 0.981361 0.304967
vt 0.987299 0.310905
vt 0.987299 0.298580
vt 0.970725 0.294331
vt 0.978693 0.302299
vt 0.987299 0.294331
vt 0.974951 0.294331
vt 0.983073 0.294331
vt 0.987299 0.310905
vt 0.977335 0.294331
vt 0.970725 0.294331
vt 0.987299 0.294331
vt 0.970725 0.294331
vt 0.983015 0.306621
vt 0.987299 0.310905
vt 0.979023 0.294331
vt 0.970725 0.294331
vt 0.987299 0.294331
vt 0.987299 0.310905
vt 0.987299 0.294331
vt 0.979880 0.303486
vt 0.987299 0.306132
vt 0.970725 0.294331
vt 0.982526 0.306132
vt 0.987299 0.294331
vt 0.970725 0.294331
vt 0.970725 0.294331
vt 0.987299 0.294331
vt 0.987299 0.310905
vt 0.970725 0.294331
vt 0.987299 0.308857
vt 0.987299 0.310905
vt 0.987299 0.310905
vt 0.987299 0.294331
vt 0.978982 0.302588
vt 0.987299 0.310905
vt 0.987299 0.298774
vt 0.987299 0.294331
vt 0.975168 0.298774
vt 0.970725 0.294331
vt 0.987299 0.295606
vt 0.987299 0.301790
vt 0.987299 0.310905
vt 0.976729 0.300335
vt 0.987299 0.300335
vt 0.987299 0.310905
vt 0.981506 0.305112
vt 0.987299 0.294331
vt 0.970725 0.294331
vt 0.987299 0.305112
vt 0.987299 0.310905
vt 0.987299 0.294331
vt 0.987299 0.296405
vt 0.970725 0.294331
vt 0.987299 0.310905
vt 0.987299 0.297335
vt 0.970725 0.294331
vt 0.987299 0.310905
s 0
usemtl Rocks
f 68/257/109 65/248/109 66/250/109
f 68/257/110 66/253/110 69/260/110
f 65/248/111 70/263/111 64/243/111
f 61/228/112 73/272/112 63/239/112
f 62/233/113 69/261/113 74/274/113
f 67/254/114 62/234/114 75/277/114
f 65/248/115 64/244/115 72/270/115
f 66/251/116 71/266/116 73/272/116
f 67/254/117 75/278/117 70/265/117
f 63/240/118 76/282/118 78/288/118
f 64/245/119 75/279/119 77/287/119
f 77/285/120 75/279/120 80/297/120
f 80/298/121 79/293/121 77/286/121
f 80/298/122 74/275/122 79/294/122
f 79/295/123 78/289/123 77/286/123
f 78/290/124 76/283/124 77/286/124
f 76/281/125 64/247/125 77/287/125
f 70/264/126 75/279/126 64/246/126
f 62/235/127 74/275/127 80/299/127
f 61/229/128 78/291/128 79/296/128
f 61/229/129 63/241/129 78/292/129
f 73/271/130 76/282/130 63/242/130
f 73/271/131 71/266/131 76/283/131
f 72/268/132 64/247/132 76/284/132
f 75/280/133 62/236/133 80/299/133
f 74/276/134 61/230/134 79/296/134
f 74/276/135 69/261/135 61/231/135
f 71/267/136 72/269/136 76/284/136
f 71/267/137 66/251/137 72/270/137
f 66/252/138 65/249/138 72/270/138
f 67/255/139 68/257/139 62/237/139
f 68/258/140 69/261/140 62/238/140
f 69/262/141 73/272/141 61/232/141
f 69/262/142 66/253/142 73/273/142
f 70/265/143 65/248/143 67/256/143
f 65/249/144 68/259/144 67/256/144
o road-c-9
v -13.592787 -0.463029 -0.186375
v -13.623444 -0.522227 -0.074278
v -13.656333 -0.508170 -0.317336
v -13.846443 -0.533990 -0.149968
v -13.616468 -0.471098 0.019077
v -13.879029 -0.490642 0.009224
v -13.768638 -0.484001 0.098645
v -13.931293 -0.490378 -0.235261
v -13.845984 -0.494866 -0.334941
v -13.756555 -0.466196 -0.366340
v -13.689604 -0.436119 0.078939
v -13.749273 -0.416749 -0.157111
v -13.824455 -0.438534 0.089555
v -13.959214 -0.441934 -0.180109
v -13.904260 -0.442498 -0.309007
vn 0.7474 -0.6497 -0.1387
vn 0.0087 -0.7506 -0.6607
vn 0.9469 -0.3065 0.0971
vn 0.3020 -0.8454 0.4405
vn 0.2359 0.9439 -0.2313
vn 0.0658 0.9706 -0.2317
vn -0.1133 0.9922 -0.0526
vn -0.1243 0.9910 0.0496
vn -0.0112 0.9964 0.0846
vn 0.2847 0.9586 0.0067
vn 0.5303 0.6886 -0.4946
vn -0.6780 -0.4777 -0.5587
vn -0.9168 -0.0838 -0.3905
vn -0.8684 0.2453 0.4309
vn 0.0704 0.2780 0.9580
vn 0.4489 -0.4154 0.7912
vn 0.4890 0.8676 0.0904
vn -0.3509 0.0719 -0.9337
vn -0.7635 -0.6251 0.1625
vn -0.5433 -0.8316 0.1152
vn -0.5241 -0.5066 0.6846
vn -0.0494 -0.9771 -0.2068
vn -0.2821 -0.9385 -0.1992
vn -0.1325 -0.9629 0.2351
vn -0.0170 -0.9792 0.2022
vn 0.0755 -0.9948 -0.0677
vt 0.990571 0.245596
vt 0.990571 0.232229
vt 0.973998 0.229022
vt 0.980348 0.235372
vt 0.990571 0.229022
vt 0.984546 0.237564
vt 0.981047 0.229022
vt 0.990571 0.229022
vt 0.980023 0.229022
vt 0.990571 0.240744
vt 0.981870 0.236894
vt 0.973998 0.229022
vt 0.987100 0.242124
vt 0.987313 0.242337
vt 0.987640 0.239619
vt 0.984595 0.229022
vt 0.983010 0.238034
vt 0.990571 0.229022
vt 0.981092 0.236116
vt 0.990571 0.229022
vt 0.973998 0.229022
vt 0.981247 0.229022
vt 0.990571 0.229022
vt 0.990571 0.229500
vt 0.973998 0.229022
vt 0.990571 0.245596
vt 0.973998 0.229022
vt 0.990571 0.229022
vt 0.990571 0.243931
vt 0.990571 0.245596
vt 0.986944 0.229022
vt 0.973998 0.229022
vt 0.990571 0.229022
vt 0.990571 0.240344
vt 0.973998 0.229022
vt 0.990571 0.229022
vt 0.990571 0.245596
vt 0.990571 0.245596
vt 0.990571 0.229022
vt 0.976911 0.231935
vt 0.973998 0.229022
vt 0.990571 0.230019
vt 0.990571 0.239301
vt 0.990571 0.245596
vt 0.981269 0.236293
vt 0.990571 0.236293
vt 0.990571 0.245596
vt 0.990571 0.229022
vt 0.973998 0.229022
vt 0.990571 0.229537
vt 0.990571 0.245596
vt 0.990571 0.229022
vt 0.973998 0.229022
vt 0.990571 0.230716
vt 0.990571 0.245596
vt 0.990571 0.231716
vt 0.984313 0.229022
vt 0.990571 0.245596
vt 0.990571 0.235281
s 0
usemtl Rocks
f 82/305/145 83/309/145 81/300/145
f 83/310/146 89/333/146 90/337/146
f 82/305/147 81/301/147 85/318/147
f 82/306/148 85/319/148 87/328/148
f 81/302/149 90/338/149 92/346/149
f 92/344/150 90/338/150 95/355/150
f 95/356/151 94/351/151 92/345/151
f 94/352/152 93/347/152 92/345/152
f 93/348/153 91/342/153 92/345/153
f 91/340/154 81/304/154 92/346/154
f 83/311/155 90/338/155 81/303/155
f 89/334/156 88/330/156 95/357/156
f 88/331/157 94/353/157 95/357/157
f 86/321/158 93/349/158 94/354/158
f 87/326/159 91/341/159 93/350/159
f 87/326/160 85/319/160 91/342/160
f 85/320/161 81/304/161 91/343/161
f 90/339/162 89/335/162 95/358/162
f 88/331/163 86/322/163 94/354/163
f 88/331/164 84/315/164 86/323/164
f 86/324/165 87/327/165 93/350/165
f 83/312/166 84/314/166 89/336/166
f 84/315/167 88/332/167 89/336/167
f 84/316/168 87/328/168 86/325/168
f 84/316/169 82/307/169 87/329/169
f 82/308/170 84/317/170 83/313/170
o road-c-8
v -14.202621 -0.463028 1.258908
v -14.105002 -0.522227 1.321968
v -14.346654 -0.508171 1.279967
v -14.244467 -0.533990 1.511723
v -14.013900 -0.471098 1.343491
v -14.102531 -0.490642 1.590836
v -13.983966 -0.484001 1.512580
v -14.351393 -0.490379 1.566876
v -14.420676 -0.494866 1.455462
v -14.423620 -0.466196 1.360726
v -13.978900 -0.436119 1.431282
v -14.221951 -0.416749 1.416930
v -14.009477 -0.438534 1.563051
v -14.307238 -0.441934 1.610140
v -14.413540 -0.442498 1.518845
vn 0.0933 -0.6497 -0.7544
vn -0.6273 -0.7506 -0.2077
vn 0.3784 -0.3065 -0.8734
vn 0.5111 -0.8454 -0.1550
vn -0.1493 0.9439 -0.2947
vn -0.2010 0.9706 -0.1326
vn -0.0844 0.9922 0.0921
vn 0.0098 0.9910 0.1335
vn 0.0773 0.9964 0.0362
vn 0.0923 0.9586 -0.2694
vn -0.3116 0.6886 -0.6548
vn -0.7373 -0.4777 0.4777
vn -0.6490 -0.0838 0.7562
vn 0.1487 0.2453 0.9580
vn 0.9346 0.2780 0.2220
vn 0.8898 -0.4154 -0.1892
vn 0.2338 0.8676 -0.4389
vn -0.9960 0.0719 0.0527
vn -0.0755 -0.6251 0.7769
vn -0.0541 -0.8316 0.5527
vn 0.4945 -0.5065 0.7063
vn -0.2121 -0.9771 -0.0154
vn -0.2751 -0.9385 0.2088
vn 0.1841 -0.9629 0.1973
vn 0.1877 -0.9792 0.0772
vn -0.0418 -0.9948 -0.0924
vt 0.992208 0.366690
vt 0.992208 0.353323
vt 0.975634 0.350116
vt 0.981984 0.356466
vt 0.992208 0.350116
vt 0.986183 0.358658
vt 0.982683 0.350116
vt 0.992208 0.350116
vt 0.981659 0.350116
vt 0.992208 0.361837
vt 0.983506 0.357988
vt 0.975634 0.350116
vt 0.988736 0.363218
vt 0.988949 0.363431
vt 0.989276 0.360713
vt 0.986231 0.350116
vt 0.984646 0.359128
vt 0.992208 0.350116
vt 0.982728 0.357210
vt 0.992208 0.350116
vt 0.975634 0.350116
vt 0.982883 0.350116
vt 0.992208 0.350116
vt 0.992208 0.350594
vt 0.975634 0.350116
vt 0.992208 0.366690
vt 0.975634 0.350116
vt 0.992208 0.350116
vt 0.992208 0.365025
vt 0.992208 0.366690
vt 0.988580 0.350116
vt 0.975634 0.350116
vt 0.992208 0.350116
vt 0.992208 0.361438
vt 0.975634 0.350116
vt 0.992208 0.350116
vt 0.992208 0.366690
vt 0.992208 0.366690
vt 0.992208 0.350116
vt 0.978547 0.353029
vt 0.975634 0.350116
vt 0.992208 0.351113
vt 0.992208 0.360395
vt 0.992208 0.366690
vt 0.982905 0.357387
vt 0.992208 0.357387
vt 0.992208 0.366690
vt 0.992208 0.350116
vt 0.975634 0.350116
vt 0.992208 0.350631
vt 0.992208 0.366690
vt 0.992208 0.350116
vt 0.975634 0.350116
vt 0.992208 0.351810
vt 0.992208 0.366690
vt 0.992208 0.352810
vt 0.985949 0.350116
vt 0.992208 0.366690
vt 0.992208 0.356375
s 0
usemtl Rocks
f 97/364/171 98/368/171 96/359/171
f 98/369/172 104/392/172 105/396/172
f 97/364/173 96/360/173 100/377/173
f 97/365/174 100/378/174 102/387/174
f 96/361/175 105/397/175 107/405/175
f 107/403/176 105/397/176 110/414/176
f 110/415/177 109/410/177 107/404/177
f 109/411/178 108/406/178 107/404/178
f 108/407/179 106/401/179 107/404/179
f 106/399/180 96/363/180 107/405/180
f 98/370/181 105/397/181 96/362/181
f 104/393/182 103/389/182 110/416/182
f 103/390/183 109/412/183 110/416/183
f 101/380/184 108/408/184 109/413/184
f 102/385/185 106/400/185 108/409/185
f 102/385/186 100/378/186 106/401/186
f 100/379/187 96/363/187 106/402/187
f 105/398/188 104/394/188 110/417/188
f 103/390/189 101/381/189 109/413/189
f 103/390/190 99/374/190 101/382/190
f 101/383/191 102/386/191 108/409/191
f 98/371/192 99/373/192 104/395/192
f 99/374/193 103/391/193 104/395/193
f 99/375/194 102/387/194 101/384/194
f 99/375/195 97/366/195 102/388/195
f 97/367/196 99/376/196 98/372/196
o road-c-7
v -12.849397 -0.595400 1.413266
v -12.773091 -0.531578 0.674895
v -12.331865 -0.428377 1.241833
v -12.421839 -0.596028 1.279586
v -12.366677 -0.596382 0.996982
v -13.096445 -0.598315 1.196670
v -12.752222 -0.662008 0.996855
v -12.341408 -0.437257 0.971655
v -12.763295 -0.479314 1.512754
v -12.508307 -0.520405 1.440536
v -13.003779 -0.438594 1.448651
v -13.087727 -0.518360 0.743477
v -13.245603 -0.495767 1.057242
v -12.504565 -0.479314 0.772449
v -12.953438 -0.383116 0.660114
v -12.663720 -0.363673 1.423398
v -12.651777 -0.297787 1.057141
v -13.156939 -0.369265 1.164336
v -13.143930 -0.367855 0.776659
v -12.705076 -0.361812 0.706121
vn 0.0515 -0.9842 0.1695
vn -0.1051 -0.9855 0.1331
vn 0.8835 -0.4352 0.1730
vn 0.0934 -0.6869 0.7207
vn 0.3563 -0.7208 -0.5946
vn 0.7783 -0.2926 0.5556
vn -0.3010 -0.4820 0.8229
vn 0.7771 -0.2174 -0.5906
vn 0.3993 0.9157 -0.0442
vn 0.3491 0.9111 -0.2192
vn -0.0414 0.9840 -0.1732
vn -0.0462 0.9780 -0.2035
vn -0.1403 0.9901 -0.0011
vn -0.1019 0.9797 0.1729
vn -0.1806 0.9288 0.3237
vn 0.2816 0.9427 0.1788
vn 0.5467 0.6077 -0.5760
vn 0.1718 0.1112 -0.9788
vn -0.2135 -0.3502 -0.9120
vn -0.5223 -0.0070 -0.8527
vn -0.8086 0.5879 -0.0250
vn -0.0888 0.6558 0.7497
vn 0.4806 0.5512 0.6821
vn 0.3344 0.0392 -0.9416
vn -0.8753 -0.2335 -0.4236
vn -0.4506 -0.8776 -0.1635
vn -0.8491 0.1723 0.4994
vn -0.7575 -0.3884 0.5247
vn -0.5069 -0.6315 0.5867
vn 0.3089 0.4006 0.8626
vn 0.9865 -0.1614 -0.0295
vn 0.1554 -0.9120 -0.3795
vn -0.1186 -0.9229 -0.3662
vn -0.2750 -0.9459 -0.1722
vn 0.1677 -0.9853 0.0340
vn 0.1505 -0.8612 0.4855
vt 0.987299 0.310905
vt 0.987299 0.294331
vt 0.970725 0.294331
vt 0.983124 0.294331
vt 0.983124 0.306730
vt 0.987299 0.303504
vt 0.970725 0.294331
vt 0.987299 0.294331
vt 0.987299 0.303227
vt 0.987299 0.310905
vt 0.987299 0.310905
vt 0.987299 0.297646
vt 0.970725 0.294331
vt 0.987299 0.294331
vt 0.977723 0.301329
vt 0.983165 0.294331
vt 0.974860 0.294331
vt 0.970725 0.294331
vt 0.987299 0.294331
vt 0.983144 0.306750
vt 0.979473 0.303078
vt 0.987299 0.310905
vt 0.982504 0.294331
vt 0.977117 0.294331
vt 0.970725 0.294331
vt 0.987299 0.294331
vt 0.978852 0.294331
vt 0.970725 0.294331
vt 0.987299 0.294331
vt 0.974307 0.294331
vt 0.974307 0.297913
vt 0.987299 0.310905
vt 0.987299 0.310905
vt 0.987299 0.294331
vt 0.970725 0.294331
vt 0.987299 0.306867
vt 0.983261 0.306867
vt 0.970725 0.294331
vt 0.987299 0.294331
vt 0.987299 0.310905
vt 0.974887 0.294331
vt 0.974887 0.298492
vt 0.987299 0.294331
vt 0.987299 0.310905
vt 0.987299 0.294331
vt 0.970725 0.294331
vt 0.974193 0.294331
vt 0.987299 0.310905
vt 0.977954 0.294331
vt 0.987299 0.294331
vt 0.987299 0.303677
vt 0.970725 0.294331
vt 0.987299 0.310905
vt 0.987299 0.294331
vt 0.970725 0.294331
vt 0.987299 0.294331
vt 0.987299 0.310905
vt 0.987299 0.294331
vt 0.970725 0.294331
vt 0.987299 0.297876
vt 0.987299 0.310905
vt 0.977511 0.301117
vt 0.987299 0.301117
vt 0.987299 0.310905
vt 0.987299 0.294331
vt 0.970725 0.294331
vt 0.987299 0.296322
vt 0.987299 0.310905
vt 0.987299 0.294331
vt 0.970725 0.294331
vt 0.987299 0.296956
vt 0.987299 0.310905
vt 0.970725 0.294331
vt 0.987299 0.298709
vt 0.987299 0.310905
s 0
usemtl Rocks
f 117/444/197 114/434/197 111/418/197
f 117/444/198 111/419/198 116/439/198
f 114/434/199 115/436/199 113/428/199
f 111/420/200 120/453/200 119/450/200
f 115/435/201 112/423/201 124/470/201
f 114/434/202 113/429/202 120/454/202
f 111/420/203 119/451/203 121/461/203
f 115/435/204 124/471/204 118/449/204
f 113/430/205 118/447/205 127/481/205
f 127/479/206 118/447/206 130/491/206
f 130/490/207 129/486/207 127/480/207
f 130/490/208 125/473/208 129/488/208
f 129/487/209 128/482/209 127/480/209
f 128/483/210 126/475/210 127/480/210
f 128/483/211 121/458/211 126/477/211
f 126/476/212 113/431/212 127/481/212
f 124/472/213 130/491/213 118/448/213
f 112/424/214 125/473/214 130/492/214
f 112/424/215 122/462/215 125/474/215
f 122/464/216 129/488/216 125/474/216
f 123/466/217 128/484/217 129/489/217
f 119/452/218 126/477/218 121/459/218
f 120/455/219 113/431/219 126/478/219
f 124/472/220 112/425/220 130/492/220
f 122/464/221 123/467/221 129/489/221
f 122/463/222 116/440/222 123/468/222
f 123/469/223 121/460/223 128/485/223
f 123/469/224 116/441/224 121/461/224
f 116/442/225 111/421/225 121/461/225
f 119/452/226 120/456/226 126/478/226
f 113/432/227 115/436/227 118/449/227
f 115/437/228 117/444/228 112/426/228
f 117/445/229 122/464/229 112/427/229
f 117/445/230 116/443/230 122/465/230
f 114/433/231 117/446/231 115/438/231
f 111/422/232 114/434/232 120/457/232
o road-c-6
v -12.746195 -0.580268 0.334863
v -12.487602 -0.580268 0.019509
v -12.053558 -0.378360 0.375430
v -12.351081 -0.320605 0.230322
v -12.448674 -0.638022 0.479971
v -12.131622 -0.580268 0.575116
v -12.107777 -0.580268 0.167998
v -11.999107 -0.516610 0.481338
v -12.001473 -0.442017 0.221672
v -12.430840 -0.526472 0.771723
v -12.149821 -0.442017 0.692805
v -12.798281 -0.516610 0.488621
v -12.643740 -0.442017 0.697304
v -12.649935 -0.516610 0.017488
v -12.800648 -0.442018 0.228953
v -12.156014 -0.516610 0.012989
v -12.368916 -0.432155 -0.061431
v -12.312151 -0.378360 0.690783
v -12.691978 -0.378360 0.542295
v -12.668133 -0.378360 0.135176
vn -0.1365 -0.9843 -0.1119
vn 0.0502 -0.9904 -0.1285
vn 0.6499 -0.4412 0.6188
vn -0.8895 -0.4412 -0.1186
vn -0.1400 -0.3861 -0.9118
vn 0.7894 -0.4412 -0.4269
vn 0.3096 0.9110 -0.2723
vn 0.2986 0.8852 -0.3567
vn -0.0641 0.9334 -0.3530
vn -0.1762 0.9843 -0.0103
vn -0.4479 0.8937 -0.0262
vn -0.0502 0.9904 0.1285
vn -0.1634 0.8937 0.4179
vn 0.1365 0.9843 0.1119
vn 0.3469 0.8937 0.2845
vn 0.4674 0.6641 -0.5835
vn -0.3765 0.5713 -0.7293
vn -0.8119 0.5591 0.1680
vn -0.0850 0.5294 0.8441
vn 0.7556 0.5591 0.3413
vn 0.0850 -0.5294 -0.8441
vn -0.6499 0.4412 -0.6188
vn -0.7556 -0.5591 -0.3413
vn -0.7894 0.4412 0.4269
vn -0.4674 -0.6641 0.5835
vn 0.1400 0.3861 0.9118
vn 0.3765 -0.5713 0.7293
vn 0.8895 0.4412 0.1186
vn 0.8119 -0.5591 -0.1680
vn 0.1634 -0.8937 -0.4179
vn -0.3469 -0.8937 -0.2845
vn -0.3096 -0.9110 0.2723
vn -0.2986 -0.8852 0.3567
vn 0.4479 -0.8937 0.0262
vn 0.1762 -0.9843 0.0103
vn 0.0641 -0.9334 0.3530
vt 0.975634 0.350116
vt 0.988462 0.350116
vt 0.992208 0.350116
vt 0.988462 0.362944
vt 0.992208 0.366690
vt 0.975634 0.350116
vt 0.988463 0.350116
vt 0.992208 0.350116
vt 0.988463 0.362944
vt 0.975634 0.350116
vt 0.992208 0.350116
vt 0.992208 0.353861
vt 0.992208 0.366690
vt 0.992208 0.366690
vt 0.982256 0.356738
vt 0.985586 0.350116
vt 0.992208 0.350116
vt 0.975634 0.350116
vt 0.988463 0.350116
vt 0.979379 0.350116
vt 0.975634 0.350116
vt 0.992208 0.350116
vt 0.988462 0.362944
vt 0.992208 0.366690
vt 0.992208 0.350116
vt 0.979724 0.350116
vt 0.975634 0.350116
vt 0.979724 0.350116
vt 0.975634 0.350116
vt 0.979724 0.354206
vt 0.992208 0.350116
vt 0.992208 0.366690
vt 0.983346 0.354263
vt 0.975634 0.350116
vt 0.992208 0.350116
vt 0.992208 0.366690
vt 0.979724 0.350116
vt 0.979724 0.354206
vt 0.992208 0.350116
vt 0.992208 0.366690
vt 0.992208 0.350116
vt 0.979724 0.350116
vt 0.975634 0.350116
vt 0.992208 0.366690
vt 0.979724 0.350116
vt 0.979724 0.354206
vt 0.992208 0.350116
vt 0.992208 0.366690
vt 0.992208 0.350116
vt 0.979724 0.350116
vt 0.975634 0.350116
vt 0.992208 0.366690
vt 0.979724 0.350116
vt 0.979724 0.354206
vt 0.992208 0.350116
vt 0.992208 0.366690
vt 0.992208 0.350116
vt 0.979724 0.350116
vt 0.975634 0.350116
vt 0.992208 0.366690
vt 0.992208 0.354263
vt 0.992208 0.350116
vt 0.983346 0.357828
vt 0.992208 0.366690
vt 0.992208 0.350116
vt 0.975634 0.350116
vt 0.992208 0.353861
vt 0.992208 0.366690
vt 0.992208 0.350116
vt 0.975634 0.350116
vt 0.992208 0.353861
vt 0.992208 0.366690
vt 0.975634 0.350116
vt 0.992208 0.353861
vt 0.992208 0.366690
s 0
usemtl Rocks
f 135/508/233 131/495/233 132/497/233
f 135/508/234 132/500/234 137/516/234
f 136/512/235 138/517/235 141/532/235
f 131/493/236 142/533/236 145/548/236
f 132/498/237 144/541/237 147/556/237
f 137/513/238 146/549/238 139/524/238
f 133/502/239 139/520/239 134/506/239
f 139/521/240 147/554/240 134/506/240
f 134/507/241 147/553/241 150/566/241
f 150/565/242 149/561/242 134/507/242
f 150/565/243 145/545/243 149/563/243
f 149/562/244 148/557/244 134/507/244
f 149/562/245 143/537/245 148/559/245
f 148/558/246 133/503/246 134/507/246
f 148/558/247 141/529/247 133/504/247
f 146/550/248 147/554/248 139/522/248
f 144/542/249 150/566/249 147/555/249
f 142/534/250 149/563/250 145/546/250
f 140/525/251 148/559/251 143/538/251
f 138/518/252 133/504/252 141/530/252
f 146/551/253 132/499/253 147/556/253
f 144/542/254 145/547/254 150/567/254
f 144/543/255 131/494/255 145/548/255
f 142/534/256 143/539/256 149/564/256
f 142/535/257 140/527/257 143/540/257
f 140/525/258 141/531/258 148/560/258
f 140/526/259 136/511/259 141/532/259
f 138/518/260 139/523/260 133/505/260
f 138/519/261 137/514/261 139/524/261
f 137/515/262 132/500/262 146/552/262
f 132/501/263 131/495/263 144/544/263
f 131/496/264 135/508/264 142/536/264
f 135/510/265 140/527/265 142/536/265
f 138/519/266 136/512/266 137/516/266
f 136/511/267 135/509/267 137/516/267
f 135/510/268 136/512/268 140/528/268
o road-c-5
v -13.348652 -0.475734 1.528953
v -13.470507 -0.524183 1.331221
v -13.261011 -0.516970 1.248717
v -13.249496 -0.469421 1.217407
v -13.237186 -0.461762 1.436321
v -13.384888 -0.487912 1.177722
v -13.386446 -0.437953 1.207413
v -13.431235 -0.453138 1.518629
v -13.536280 -0.451892 1.307209
vn -0.2881 -0.8739 0.3916
vn 0.9637 -0.2630 -0.0450
vn -0.7455 -0.5563 0.3671
vn 0.3015 -0.5742 -0.7611
vn -0.0667 0.9970 0.0390
vn 0.0691 0.9959 0.0585
vn 0.2002 0.9042 0.3773
vn 0.2269 0.9728 -0.0468
vn 0.1780 0.5068 -0.8435
vn -0.5296 0.4211 -0.7363
vn -0.5666 -0.6733 -0.4751
vn -0.0722 -0.9609 -0.2673
vn 0.2113 -0.9715 0.1078
vn 0.1367 -0.9549 0.2636
vt 0.990571 0.433183
vt 0.980017 0.420867
vt 0.990571 0.437441
vt 0.987115 0.420867
vt 0.989861 0.420867
vt 0.973998 0.420867
vt 0.973998 0.420867
vt 0.987048 0.433918
vt 0.988149 0.427832
vt 0.990571 0.420867
vt 0.986351 0.433220
vt 0.978628 0.420867
vt 0.978537 0.425407
vt 0.987768 0.434638
vt 0.990571 0.420867
vt 0.990571 0.423338
vt 0.973998 0.420867
vt 0.990571 0.434638
vt 0.990571 0.437441
vt 0.990571 0.420867
vt 0.980438 0.420867
vt 0.973998 0.420867
vt 0.990571 0.437441
vt 0.976278 0.421743
vt 0.989167 0.424563
vt 0.990571 0.437441
vt 0.990571 0.437441
vt 0.990571 0.421084
vt 0.990571 0.420867
vt 0.973998 0.420867
vt 0.990571 0.437441
vt 0.973998 0.420867
vt 0.990571 0.426715
vt 0.990571 0.429212
s 0
usemtl Rocks
f 152/573/269 151/568/269 158/594/269
f 153/576/270 154/577/270 155/581/270
f 152/573/271 158/595/271 159/598/271
f 153/574/272 156/587/272 154/578/272
f 159/599/273 158/596/273 157/591/273
f 158/597/274 155/582/274 157/591/274
f 158/597/275 151/569/275 155/583/275
f 155/584/276 154/579/276 157/593/276
f 156/588/277 157/592/277 154/580/277
f 156/589/278 159/600/278 157/593/278
f 156/589/279 152/571/279 159/601/279
f 153/575/280 152/572/280 156/590/280
f 152/573/281 155/585/281 151/570/281
f 152/573/282 153/576/282 155/586/282
o road-c-4
v -12.023728 -0.566795 1.493822
v -11.768415 -0.677074 0.847847
v -12.248887 -0.415760 1.115238
v -11.311649 -0.427559 1.154570
v -11.682941 -0.416020 0.777507
v -11.575512 -0.590871 1.497365
v -11.797259 -0.546333 1.564013
v -11.500767 -0.670511 1.149271
v -12.201227 -0.609299 1.204447
v -11.813392 -0.705890 1.158434
v -11.411599 -0.492238 1.433576
v -11.304876 -0.578079 1.215149
v -11.965320 -0.434370 1.593016
v -11.672757 -0.450386 1.591234
v -12.283896 -0.492933 1.164471
v -12.189764 -0.449156 1.441042
v -12.040638 -0.624860 0.761972
v -12.169044 -0.519125 0.775101
v -11.715803 -0.562461 0.654988
v -11.541776 -0.388197 1.429228
v -12.060609 -0.356892 1.448824
v -11.879421 -0.515276 0.606812
v -11.337786 -0.516027 0.879856
v -11.822816 -0.342690 1.510776
v -11.997221 -0.392285 0.827337
vn -0.0530 -0.9337 0.3540
vn -0.2036 -0.9430 0.2634
vn 0.5793 -0.6216 0.5273
vn -0.2081 -0.5260 0.8247
vn 0.3539 -0.8876 -0.2949
vn 0.4736 -0.2387 0.8478
vn -0.5059 -0.3630 0.7825
vn -0.7697 -0.6107 -0.1860
vn -0.0034 -0.8592 -0.5116
vn 0.4732 -0.8568 -0.2050
vn -0.1761 0.9816 -0.0739
vn -0.4824 0.8002 -0.3564
vn 0.3775 0.5429 -0.7502
vn 0.3495 0.8816 -0.3172
vn 0.3794 0.5421 -0.7498
vn -0.0123 0.8705 -0.4920
vn -0.3540 0.7235 -0.5926
vn 0.0612 0.9943 -0.0878
vn -0.0436 0.9972 -0.0612
vn 0.1101 0.9908 -0.0781
vn 0.1570 0.9875 -0.0100
vn 0.9953 0.0059 -0.0966
vn -0.0487 -0.7913 -0.6095
vn -0.4456 -0.4446 -0.7770
vn -0.9276 0.2361 -0.2895
vn -0.5785 0.7941 0.1864
vn -0.4724 0.6075 0.6386
vn -0.1942 0.8049 0.5608
vn 0.2841 0.7956 0.5351
vn 0.4756 0.6211 0.6229
vn 0.5714 0.7305 0.3740
vn 0.3463 -0.8449 -0.4077
vn -0.6346 -0.7454 -0.2041
vn -0.8360 0.5094 0.2039
vn -0.8161 -0.4594 0.3505
vn -0.6053 -0.6453 0.4661
vn 0.0393 0.6326 0.7734
vn -0.0085 -0.2627 0.9648
vn 0.1680 -0.4646 0.8694
vn 0.9095 0.1898 0.3698
vn 0.1099 -0.9910 -0.0760
vn -0.1526 -0.9818 -0.1132
vn -0.2475 -0.9673 -0.0558
vn 0.3320 -0.9015 0.2776
vn 0.1161 -0.9625 0.2451
vn -0.0518 -0.9014 0.4300
vt 0.990571 0.245596
vt 0.990571 0.229022
vt 0.973998 0.229022
vt 0.986397 0.229022
vt 0.986397 0.241421
vt 0.973998 0.229022
vt 0.990571 0.229022
vt 0.990571 0.235329
vt 0.990571 0.245596
vt 0.973998 0.229022
vt 0.990571 0.229022
vt 0.990572 0.235893
vt 0.990571 0.245596
vt 0.973998 0.229022
vt 0.990571 0.229022
vt 0.990571 0.233001
vt 0.990571 0.245596
vt 0.990571 0.245596
vt 0.977110 0.232134
vt 0.986428 0.229022
vt 0.978141 0.229022
vt 0.990571 0.229022
vt 0.973998 0.229022
vt 0.990571 0.245596
vt 0.973998 0.229022
vt 0.982217 0.237241
vt 0.990571 0.245596
vt 0.990571 0.245596
vt 0.986326 0.229022
vt 0.980251 0.229022
vt 0.973998 0.229022
vt 0.990571 0.229022
vt 0.980964 0.229022
vt 0.973998 0.229022
vt 0.990571 0.229022
vt 0.990571 0.245596
vt 0.990571 0.229022
vt 0.973998 0.229022
vt 0.990571 0.241325
vt 0.973998 0.229022
vt 0.990571 0.229022
vt 0.986301 0.241325
vt 0.990571 0.245596
vt 0.990571 0.229022
vt 0.973998 0.229022
vt 0.973998 0.229022
vt 0.990571 0.229022
vt 0.990571 0.245596
vt 0.990571 0.229022
vt 0.973998 0.229022
vt 0.973998 0.229022
vt 0.990571 0.229022
vt 0.990571 0.245596
vt 0.990571 0.229022
vt 0.973998 0.229022
vt 0.979089 0.229022
vt 0.990571 0.245596
vt 0.973998 0.229022
vt 0.990571 0.229022
vt 0.983622 0.238646
vt 0.990571 0.245596
vt 0.973998 0.229022
vt 0.990571 0.229022
vt 0.978101 0.233125
vt 0.990571 0.245596
vt 0.990571 0.229022
vt 0.990571 0.245596
vt 0.990571 0.229022
vt 0.990571 0.245596
vt 0.990571 0.229022
vt 0.973998 0.229022
vt 0.990571 0.245596
vt 0.990571 0.245596
vt 0.990571 0.243611
vt 0.973998 0.229022
vt 0.990571 0.229022
vt 0.988587 0.243611
vt 0.990571 0.229022
vt 0.973998 0.229022
vt 0.990571 0.231424
vt 0.990571 0.245596
vt 0.977784 0.232808
vt 0.990571 0.245596
vt 0.973998 0.229022
s 0
usemtl Rocks
f 169/634/283 165/622/283 160/602/283
f 169/634/284 160/603/284 168/629/284
f 165/622/285 171/640/285 170/637/285
f 160/604/286 166/623/286 172/644/286
f 167/626/287 161/608/287 182/674/287
f 165/622/288 170/638/288 173/649/288
f 160/604/289 172/645/289 175/654/289
f 168/631/290 174/650/290 177/662/290
f 161/607/291 176/655/291 178/666/291
f 167/626/292 182/675/292 171/643/292
f 162/611/293 180/669/293 184/683/293
f 177/659/294 162/612/294 184/684/294
f 178/663/295 181/671/295 164/619/295
f 163/615/296 182/677/296 164/619/296
f 182/676/297 178/664/297 164/619/297
f 164/620/298 181/671/298 184/684/298
f 181/672/299 177/660/299 184/684/299
f 184/685/300 183/679/300 164/620/300
f 184/685/301 180/669/301 183/681/301
f 183/680/302 163/616/302 164/620/302
f 183/680/303 179/667/303 163/617/303
f 171/641/304 182/677/304 163/618/304
f 178/665/305 176/655/305 181/673/305
f 176/657/306 177/660/306 181/673/306
f 177/661/307 174/650/307 162/613/307
f 175/652/308 180/669/308 162/614/308
f 175/652/309 172/645/309 180/670/309
f 172/646/310 183/681/310 180/670/310
f 173/647/311 179/667/311 183/682/311
f 173/647/312 170/638/312 179/668/312
f 170/639/313 163/617/313 179/668/313
f 182/678/314 161/608/314 178/666/314
f 176/656/315 168/630/315 177/662/315
f 174/651/316 175/653/316 162/614/316
f 174/651/317 168/631/317 175/654/317
f 168/632/318 160/605/318 175/654/318
f 172/646/319 173/648/319 183/682/319
f 172/646/320 166/623/320 173/649/320
f 166/624/321 165/621/321 173/649/321
f 170/639/322 171/642/322 163/618/322
f 167/627/323 169/634/323 161/609/323
f 169/635/324 176/657/324 161/610/324
f 169/635/325 168/633/325 176/658/325
f 171/643/326 165/622/326 167/628/326
f 165/621/327 169/636/327 167/628/327
f 160/606/328 165/622/328 166/625/328
o road-c-3
v -11.488408 -0.580456 0.609848
v -11.737416 -0.405771 0.523838
v -11.137272 -0.378904 0.163399
v -11.716220 -0.319466 0.161762
v -11.200454 -0.585318 0.314197
v -11.398118 -0.584792 -0.047201
v -11.745363 -0.584705 0.475310
v -11.594151 -0.638710 0.133313
v -11.211905 -0.525515 0.019415
v -11.347067 -0.479314 0.702052
v -11.149239 -0.510109 0.529764
v -11.670800 -0.479971 0.686607
v -11.934541 -0.514904 -0.028670
v -11.982949 -0.433716 0.106801
v -11.764679 -0.514591 -0.177988
v -11.048026 -0.427843 0.310216
v -11.913230 -0.395160 -0.116318
v -11.480744 -0.431767 -0.145592
v -11.290810 -0.380025 0.648613
v -11.706959 -0.377217 -0.149234
vn 0.0877 -0.9909 0.1017
vn -0.0532 -0.9897 0.1328
vn 0.7063 -0.6879 -0.1670
vn 0.2849 -0.8321 0.4759
vn 0.2268 -0.4371 -0.8703
vn 0.7176 -0.6928 0.0712
vn -0.0351 -0.6461 0.7625
vn -0.8554 -0.2757 0.4385
vn 0.4089 -0.3270 -0.8520
vn -0.1183 0.9675 0.2237
vn -0.4191 0.8884 0.1872
vn 0.1010 0.9787 -0.1787
vn 0.2211 0.8903 -0.3981
vn -0.1144 0.9761 -0.1847
vn -0.3993 0.9162 0.0335
vn 0.1020 0.9942 0.0346
vn 0.3352 0.9359 0.1082
vn 0.5767 0.4039 -0.7102
vn -0.1746 0.2715 -0.9465
vn -0.6055 -0.3971 -0.6897
vn -0.9503 -0.0552 -0.3065
vn -0.8339 0.2863 0.4718
vn -0.1807 0.8649 0.4682
vn -0.0425 0.4921 0.8695
vn 0.7748 0.3850 0.5015
vn 0.0593 0.1806 -0.9818
vn -0.6997 -0.6948 0.1664
vn -0.2475 -0.8305 0.4990
vn 0.6592 0.0309 0.7514
vn 0.8614 0.0571 -0.5046
vn -0.0574 -0.9378 -0.3425
vn -0.2216 -0.9415 -0.2540
vn -0.3409 -0.9401 -0.0023
vn 0.3612 -0.9111 -0.1989
vn 0.1782 -0.9790 -0.0989
vn 0.2552 -0.9302 0.2639
vt 0.992208 0.366690
vt 0.992208 0.350116
vt 0.975634 0.350116
vt 0.988209 0.350116
vt 0.988209 0.362691
vt 0.975634 0.350116
vt 0.992208 0.350116
vt 0.992208 0.354301
vt 0.992208 0.366690
vt 0.975634 0.350116
vt 0.992208 0.350116
vt 0.992208 0.353322
vt 0.992208 0.366690
vt 0.982672 0.357154
vt 0.992208 0.366690
vt 0.989233 0.354178
vt 0.986679 0.350116
vt 0.981162 0.350116
vt 0.975634 0.350116
vt 0.987254 0.361736
vt 0.992208 0.366690
vt 0.992208 0.366690
vt 0.983041 0.350116
vt 0.987425 0.350116
vt 0.975634 0.350116
vt 0.992208 0.350116
vt 0.984220 0.350116
vt 0.975634 0.350116
vt 0.992208 0.350116
vt 0.992208 0.361340
vt 0.975634 0.350116
vt 0.992208 0.350116
vt 0.986858 0.361340
vt 0.992208 0.366690
vt 0.992208 0.350116
vt 0.975634 0.350116
vt 0.992208 0.363579
vt 0.989097 0.363579
vt 0.975634 0.350116
vt 0.992208 0.350116
vt 0.992208 0.366690
vt 0.992208 0.350116
vt 0.975634 0.350116
vt 0.988369 0.362851
vt 0.988837 0.350116
vt 0.980977 0.353487
vt 0.975634 0.350116
vt 0.992208 0.350116
vt 0.992208 0.366690
vt 0.975634 0.350116
vt 0.992208 0.350116
vt 0.988325 0.362807
vt 0.992208 0.366690
vt 0.992208 0.362959
vt 0.975634 0.350116
vt 0.992208 0.350116
vt 0.992208 0.366690
vt 0.992208 0.366690
vt 0.992208 0.356588
vt 0.992208 0.350116
vt 0.982107 0.356588
vt 0.975634 0.350116
vt 0.992208 0.350116
vt 0.992208 0.366690
vt 0.992208 0.366690
vt 0.992208 0.355074
vt 0.992208 0.350116
vt 0.980592 0.355074
vt 0.975634 0.350116
vt 0.992208 0.351846
vt 0.992208 0.357291
vt 0.992208 0.366690
vt 0.992208 0.350116
vt 0.992208 0.353093
vt 0.975634 0.350116
vt 0.992208 0.366690
s 0
usemtl Rocks
f 192/712/329 189/703/329 185/686/329
f 192/712/330 185/687/330 191/707/330
f 189/703/331 193/715/331 200/743/331
f 185/688/332 195/722/332 194/719/332
f 190/704/333 199/739/333 202/750/333
f 189/703/334 200/744/334 195/723/334
f 185/688/335 194/720/335 196/729/335
f 191/708/336 196/727/336 198/738/336
f 190/704/337 202/751/337 193/718/337
f 186/691/338 203/755/338 188/699/338
f 198/735/339 186/692/339 188/700/339
f 187/695/340 204/758/340 188/701/340
f 187/695/341 202/752/341 204/759/341
f 204/760/342 201/748/342 188/700/342
f 201/747/343 198/736/343 188/700/343
f 203/754/344 187/696/344 188/701/344
f 203/754/345 200/745/345 187/697/345
f 193/716/346 202/752/346 187/698/346
f 199/740/347 201/748/347 204/761/347
f 199/740/348 197/730/348 201/749/348
f 197/731/349 198/736/349 201/749/349
f 198/737/350 196/727/350 186/693/350
f 196/728/351 203/755/351 186/694/351
f 196/728/352 194/720/352 203/756/352
f 195/724/353 200/745/353 203/757/353
f 202/753/354 199/741/354 204/761/354
f 197/732/355 191/709/355 198/738/355
f 191/710/356 185/689/356 196/729/356
f 194/721/357 195/725/357 203/757/357
f 200/746/358 193/717/358 187/698/358
f 190/705/359 192/712/359 199/742/359
f 192/713/360 197/733/360 199/742/360
f 192/713/361 191/711/361 197/734/361
f 193/718/362 189/703/362 190/706/362
f 189/702/363 192/714/363 190/706/363
f 185/690/364 189/703/364 195/726/364
o road-c-2
v -11.886893 -0.465383 -0.296962
v -11.928688 -0.508604 -0.364347
v -12.190961 -0.521927 -0.199504
v -11.906280 -0.441831 -0.187070
v -12.249487 -0.492754 -0.298682
v -12.015283 -0.485176 -0.081768
v -12.151606 -0.452725 -0.066831
v -12.322908 -0.452252 -0.226604
v -12.073554 -0.460037 -0.387583
vn 0.1255 -0.9848 0.1201
vn -0.1503 -0.8576 0.4919
vn -0.1629 -0.7769 -0.6082
vn 0.4559 -0.8504 0.2627
vn -0.4808 -0.7108 0.5134
vn 0.1192 0.9749 -0.1879
vn -0.0178 0.9970 -0.0757
vn -0.0281 0.9991 0.0331
vn 0.2484 0.7778 0.5773
vn 0.3337 0.6858 -0.6468
vn -0.4651 0.4803 -0.7437
vn -0.4697 -0.8827 0.0175
vn 0.5460 -0.8045 0.2340
vn -0.0948 -0.9688 -0.2291
vt 0.990571 0.423713
vt 0.973998 0.420867
vt 0.979933 0.426803
vt 0.985325 0.432194
vt 0.987843 0.427769
vt 0.973998 0.420867
vt 0.989156 0.430965
vt 0.987587 0.434456
vt 0.973998 0.420867
vt 0.987258 0.420867
vt 0.988840 0.434128
vt 0.974612 0.421482
vt 0.990571 0.421104
vt 0.990571 0.437441
vt 0.990571 0.429901
vt 0.983521 0.420867
vt 0.973998 0.420867
vt 0.990571 0.426236
vt 0.990571 0.437441
vt 0.990571 0.430304
vt 0.979250 0.420867
vt 0.990571 0.437441
vt 0.990571 0.421708
vt 0.973998 0.420867
vt 0.990571 0.420867
vt 0.973998 0.420867
vt 0.990571 0.427126
vt 0.990571 0.437441
vt 0.990571 0.437441
vt 0.973998 0.420867
vt 0.990571 0.421699
vt 0.980091 0.426961
s 0
usemtl Rocks
f 207/772/365 206/766/365 210/780/365
f 207/770/366 210/781/366 211/783/366
f 206/765/367 209/776/367 213/790/367
f 206/766/368 205/762/368 208/775/368
f 207/770/369 211/784/369 212/789/369
f 205/763/370 213/792/370 208/773/370
f 213/791/371 212/786/371 208/774/371
f 212/787/372 211/784/372 208/774/372
f 211/785/373 210/782/373 208/774/373
f 206/767/374 213/792/374 205/764/374
f 209/777/375 212/788/375 213/793/375
f 209/778/376 207/771/376 212/789/376
f 210/782/377 206/768/377 208/775/377
f 206/769/378 207/772/378 209/779/378
